<svg width="66" height="66" viewBox="0 0 66 66" fill="none" xmlns="http://www.w3.org/2000/svg">
<g clip-path="url(#clip0_259_216)">
<path d="M32.5501 52.96C21.3001 52.96 12.1401 43.8 12.1401 32.55C12.1401 21.3 21.3001 12.14 32.5501 12.14C43.8001 12.14 52.9601 21.3 52.9601 32.55C52.9601 43.8 43.8001 52.96 32.5501 52.96ZM32.5501 16.14C23.5001 16.14 16.1401 23.5 16.1401 32.55C16.1401 41.6 23.5001 48.96 32.5501 48.96C41.6001 48.96 48.9601 41.6 48.9601 32.55C48.9601 23.5 41.6001 16.14 32.5501 16.14Z" fill="#F6B119"/>
<path d="M46.6602 61.6C45.8102 61.6 44.9902 61.14 44.5702 60.34C43.9602 59.19 44.4002 57.76 45.5502 57.15C54.6902 52.31 60.3602 42.88 60.3602 32.55C60.3602 17.21 47.8802 4.73001 32.5402 4.73001C31.2402 4.73001 30.1802 3.67001 30.1802 2.37001C30.1802 1.07001 31.2402 0.0100098 32.5402 0.0100098C50.4902 0.0100098 65.0902 14.61 65.0902 32.56C65.0902 44.65 58.4502 55.67 47.7602 61.33C47.4102 61.52 47.0302 61.61 46.6602 61.61V61.6Z" fill="#F6B119"/>
<path d="M55.6501 61.72L49.0801 59.1C48.4401 58.84 48.1301 58.12 48.3801 57.48L51.0001 50.91C51.4101 49.88 50.3701 48.86 49.3501 49.3L46.3401 50.59C46.0401 50.72 45.8001 50.97 45.6701 51.27L42.1301 60.15C41.8701 60.79 42.1901 61.52 42.8301 61.77L51.7101 65.31C52.0201 65.43 52.3601 65.43 52.6601 65.3L55.6701 64.01C56.6901 63.57 56.6701 62.12 55.6401 61.71L55.6501 61.72Z" fill="#F6B119"/>
<path d="M32.55 65.09C14.6 65.09 0 50.49 0 32.55C0 20.96 6.24 10.15 16.29 4.34001C17.42 3.69001 18.86 4.07001 19.52 5.20001C20.17 6.33001 19.79 7.77001 18.66 8.43001C10.07 13.39 4.73 22.63 4.73 32.54C4.73 47.88 17.21 60.36 32.55 60.36C33.85 60.36 34.91 61.42 34.91 62.72C34.91 64.02 33.85 65.08 32.55 65.08V65.09Z" fill="#F6B119"/>
<path d="M7.99017 4.09002L15.2202 6.67002C15.7802 6.87002 16.0702 7.48002 15.8702 8.04002L13.2802 15.27C12.9602 16.17 13.8802 17 14.7402 16.6L18.1502 14.98C18.4102 14.86 18.6002 14.64 18.7002 14.37L22.0002 5.13002C22.2002 4.57002 21.9102 3.96002 21.3502 3.76002L12.1202 0.460024C11.8502 0.360024 11.5602 0.380024 11.3002 0.500024L7.89017 2.12002C7.03017 2.53002 7.09017 3.77002 7.99017 4.09002Z" fill="#F6B119"/>
<path d="M28.4902 32.55V26.44C28.4902 25.68 29.3102 25.21 29.9602 25.59L35.2502 28.64L40.5402 31.69C41.1902 32.07 41.1902 33.01 40.5402 33.39L35.2502 36.44L29.9602 39.49C29.3102 39.87 28.4902 39.4 28.4902 38.64V32.53V32.55Z" fill="#F6B119"/>
</g>
<defs>
<clipPath id="clip0_259_216">
<rect width="65.09" height="65.42" fill="white"/>
</clipPath>
</defs>
</svg>
