<svg width="453" height="76" viewBox="0 0 453 76" fill="none" xmlns="http://www.w3.org/2000/svg">
<path d="M1.3 3.325C1.3 2.325 1.825 1.825 2.875 1.825H11.475C12.325 1.825 12.75 2.21667 12.75 3C12.75 3.21667 12.7167 3.44167 12.65 3.675C12.5833 3.89167 12.5083 4.06667 12.425 4.2H4V9.05H11.125C11.975 9.05 12.4 9.44167 12.4 10.225C12.4 10.4417 12.3667 10.6667 12.3 10.9C12.2333 11.1167 12.1583 11.2917 12.075 11.425H4V16.625H12.625V19H1.3V3.325ZM16.6262 1.725C16.6262 1.34167 16.7512 1.05833 17.0012 0.874999C17.2512 0.674999 17.5845 0.574999 18.0012 0.574999C18.4512 0.574999 18.8595 0.658332 19.2262 0.824999V11.35L24.1262 7.525C24.5595 7.19167 24.9678 6.93333 25.3512 6.75C25.7345 6.56667 26.0928 6.475 26.4262 6.475C27.1428 6.475 27.6762 6.775 28.0262 7.375L21.9012 12.075C22.7012 12.6583 23.5095 13.3333 24.3262 14.1C25.1428 14.85 25.9178 15.6417 26.6512 16.475C27.4012 17.3083 28.0678 18.15 28.6512 19H25.4012C24.9178 18.3333 24.3262 17.6417 23.6262 16.925C22.9428 16.2083 22.2178 15.5167 21.4512 14.85C20.6845 14.1667 19.9428 13.575 19.2262 13.075V19H16.6262V1.725ZM39.9619 18.3C38.9286 19.0333 37.5619 19.4 35.8619 19.4C35.1119 19.4 34.3452 19.325 33.5619 19.175C32.7786 19.0417 32.0619 18.8583 31.4119 18.625C30.7786 18.3917 30.2869 18.1333 29.9369 17.85L30.9619 16.05C31.5619 16.45 32.2869 16.775 33.1369 17.025C34.0036 17.2583 34.9036 17.375 35.8369 17.375C36.7369 17.375 37.4536 17.25 37.9869 17C38.5369 16.7333 38.8119 16.3 38.8119 15.7C38.8119 15.2667 38.6536 14.9083 38.3369 14.625C38.0202 14.3417 37.4536 14.1417 36.6369 14.025L34.4869 13.7C32.9702 13.4667 31.8536 13.0583 31.1369 12.475C30.4369 11.875 30.0869 11.05 30.0869 10C30.0869 8.73333 30.5536 7.75833 31.4869 7.075C32.4202 6.39167 33.7619 6.05 35.5119 6.05C36.3119 6.05 37.0952 6.125 37.8619 6.275C38.6452 6.40833 39.2869 6.6 39.7869 6.85C40.4702 7.2 40.8119 7.625 40.8119 8.125C40.8119 8.375 40.7286 8.625 40.5619 8.875C40.4119 9.10833 40.2202 9.29167 39.9869 9.425C39.5702 9.00833 38.9619 8.66667 38.1619 8.4C37.3619 8.13333 36.5202 8 35.6369 8C34.7369 8 34.0119 8.15 33.4619 8.45C32.9286 8.75 32.6619 9.19167 32.6619 9.775C32.6619 10.1917 32.8369 10.525 33.1869 10.775C33.5369 11.0083 34.1369 11.1917 34.9869 11.325L37.1119 11.625C38.6452 11.8417 39.7619 12.2583 40.4619 12.875C41.1786 13.475 41.5369 14.275 41.5369 15.275C41.5369 16.5583 41.0119 17.5667 39.9619 18.3ZM45.0197 7.175C45.3864 6.975 45.8697 6.79167 46.4697 6.625C47.0864 6.44167 47.7447 6.3 48.4447 6.2C49.1447 6.1 49.8031 6.05 50.4197 6.05C51.8531 6.05 53.1031 6.34167 54.1697 6.925C55.2364 7.49167 56.0614 8.29167 56.6447 9.325C57.2447 10.3583 57.5447 11.5667 57.5447 12.95C57.5447 14.2 57.2947 15.2917 56.7947 16.225C56.3114 17.1583 55.6281 17.8833 54.7447 18.4C53.8614 18.9167 52.8364 19.175 51.6697 19.175C50.7197 19.175 49.8781 19.0167 49.1447 18.7C48.4114 18.3833 47.8947 18.0167 47.5947 17.6V24H45.0197V7.175ZM51.2197 17.025C52.4197 17.025 53.3197 16.6417 53.9197 15.875C54.5364 15.0917 54.8447 14.0583 54.8447 12.775C54.8447 11.275 54.4447 10.1333 53.6447 9.35C52.8447 8.55 51.7531 8.15 50.3697 8.15C49.8864 8.15 49.3947 8.2 48.8947 8.3C48.3947 8.38333 47.9614 8.50833 47.5947 8.675V14.825C47.9281 15.5417 48.4114 16.0917 49.0447 16.475C49.6781 16.8417 50.4031 17.025 51.2197 17.025ZM63.5865 19H60.9865V1.725C60.9865 1.34167 61.1115 1.05833 61.3615 0.874999C61.6115 0.674999 61.9449 0.574999 62.3615 0.574999C62.8115 0.574999 63.2199 0.658332 63.5865 0.824999V19ZM67.876 16.175C67.3093 15.1583 67.026 14.0083 67.026 12.725C67.026 11.425 67.3093 10.275 67.876 9.275C68.4593 8.275 69.251 7.49167 70.251 6.925C71.251 6.34167 72.401 6.05 73.701 6.05C75.001 6.05 76.151 6.34167 77.151 6.925C78.151 7.49167 78.9343 8.275 79.501 9.275C80.0843 10.275 80.376 11.425 80.376 12.725C80.376 14.0083 80.0843 15.1583 79.501 16.175C78.9343 17.175 78.151 17.9667 77.151 18.55C76.151 19.1167 75.001 19.4 73.701 19.4C72.401 19.4 71.251 19.1167 70.251 18.55C69.251 17.9667 68.4593 17.175 67.876 16.175ZM77.701 12.725C77.701 11.3417 77.3343 10.2333 76.601 9.4C75.8843 8.56667 74.9176 8.15 73.701 8.15C72.501 8.15 71.5343 8.56667 70.801 9.4C70.0676 10.2333 69.701 11.3417 69.701 12.725C69.701 14.0917 70.0676 15.2 70.801 16.05C71.5343 16.8833 72.501 17.3 73.701 17.3C74.9176 17.3 75.8843 16.8833 76.601 16.05C77.3343 15.2 77.701 14.0917 77.701 12.725ZM83.8381 7.575C84.3714 7.15833 85.0798 6.8 85.9631 6.5C86.8464 6.2 87.8381 6.05 88.9381 6.05C89.9381 6.05 90.7464 6.18333 91.3631 6.45C91.9798 6.71667 92.2881 7.075 92.2881 7.525C92.2881 7.725 92.2298 7.95 92.1131 8.2C91.9964 8.45 91.8714 8.64167 91.7381 8.775C91.5214 8.625 91.1548 8.49167 90.6381 8.375C90.1381 8.25833 89.6381 8.2 89.1381 8.2C88.6381 8.2 88.1381 8.26667 87.6381 8.4C87.1548 8.51667 86.7464 8.68333 86.4131 8.9V19H83.8381V7.575ZM94.3896 16.175C93.823 15.1583 93.5396 14.0083 93.5396 12.725C93.5396 11.425 93.823 10.275 94.3896 9.275C94.973 8.275 95.7646 7.49167 96.7646 6.925C97.7646 6.34167 98.9146 6.05 100.215 6.05C101.515 6.05 102.665 6.34167 103.665 6.925C104.665 7.49167 105.448 8.275 106.015 9.275C106.598 10.275 106.89 11.425 106.89 12.725C106.89 14.0083 106.598 15.1583 106.015 16.175C105.448 17.175 104.665 17.9667 103.665 18.55C102.665 19.1167 101.515 19.4 100.215 19.4C98.9146 19.4 97.7646 19.1167 96.7646 18.55C95.7646 17.9667 94.973 17.175 94.3896 16.175ZM104.215 12.725C104.215 11.3417 103.848 10.2333 103.115 9.4C102.398 8.56667 101.431 8.15 100.215 8.15C99.0146 8.15 98.048 8.56667 97.3146 9.4C96.5813 10.2333 96.2146 11.3417 96.2146 12.725C96.2146 14.0917 96.5813 15.2 97.3146 16.05C98.048 16.8833 99.0146 17.3 100.215 17.3C101.431 17.3 102.398 16.8833 103.115 16.05C103.848 15.2 104.215 14.0917 104.215 12.725ZM116.382 7.175C116.749 6.975 117.232 6.79167 117.832 6.625C118.449 6.44167 119.107 6.3 119.807 6.2C120.507 6.1 121.165 6.05 121.782 6.05C123.215 6.05 124.465 6.34167 125.532 6.925C126.599 7.49167 127.424 8.29167 128.007 9.325C128.607 10.3583 128.907 11.5667 128.907 12.95C128.907 14.2 128.657 15.2917 128.157 16.225C127.674 17.1583 126.99 17.8833 126.107 18.4C125.224 18.9167 124.199 19.175 123.032 19.175C122.082 19.175 121.24 19.0167 120.507 18.7C119.774 18.3833 119.257 18.0167 118.957 17.6V24H116.382V7.175ZM122.582 17.025C123.782 17.025 124.682 16.6417 125.282 15.875C125.899 15.0917 126.207 14.0583 126.207 12.775C126.207 11.275 125.807 10.1333 125.007 9.35C124.207 8.55 123.115 8.15 121.732 8.15C121.249 8.15 120.757 8.2 120.257 8.3C119.757 8.38333 119.324 8.50833 118.957 8.675V14.825C119.29 15.5417 119.774 16.0917 120.407 16.475C121.04 16.8417 121.765 17.025 122.582 17.025ZM134.949 19H132.349V1.725C132.349 1.34167 132.474 1.05833 132.724 0.874999C132.974 0.674999 133.307 0.574999 133.724 0.574999C134.174 0.574999 134.582 0.658332 134.949 0.824999V19ZM149.838 18.925C149.455 19.0083 148.938 19.0833 148.288 19.15C147.638 19.2167 146.963 19.2667 146.263 19.3C145.58 19.3333 144.963 19.35 144.413 19.35C142.28 19.35 140.722 19.0417 139.738 18.425C138.755 17.8083 138.263 16.775 138.263 15.325C138.263 13.9083 138.722 12.8667 139.638 12.2C140.572 11.5167 142.047 11.175 144.063 11.175C144.397 11.175 144.772 11.1833 145.188 11.2C145.605 11.2167 146.005 11.2333 146.388 11.25C146.772 11.2667 147.08 11.2917 147.313 11.325V11.2C147.313 10.15 146.997 9.36667 146.363 8.85C145.73 8.31667 144.813 8.05 143.613 8.05C142.197 8.05 141.03 8.40833 140.113 9.125C139.913 8.99167 139.747 8.80833 139.613 8.575C139.497 8.34167 139.438 8.10833 139.438 7.875C139.438 7.30833 139.805 6.875 140.538 6.575C141.272 6.25833 142.28 6.1 143.563 6.1C147.747 6.1 149.838 7.88333 149.838 11.45V18.925ZM140.838 15.275C140.838 16.0417 141.113 16.6167 141.663 17C142.213 17.3667 143.097 17.55 144.313 17.55C144.83 17.55 145.388 17.525 145.988 17.475C146.588 17.4083 147.022 17.3417 147.288 17.275V13.125C147.155 13.0917 146.913 13.0667 146.563 13.05C146.213 13.0167 145.83 12.9917 145.413 12.975C145.013 12.9417 144.655 12.925 144.338 12.925C143.172 12.925 142.297 13.1167 141.713 13.5C141.13 13.8667 140.838 14.4583 140.838 15.275ZM154.631 8.6H153.481C152.681 8.6 152.281 8.24167 152.281 7.525C152.281 7.34167 152.306 7.15 152.356 6.95C152.406 6.75 152.473 6.58333 152.556 6.45H154.631V3.7C154.631 3.31667 154.756 3.03333 155.006 2.85C155.256 2.65 155.59 2.55 156.006 2.55C156.456 2.55 156.865 2.63333 157.231 2.8V6.45H160.406C161.206 6.45 161.606 6.80833 161.606 7.525C161.606 7.69167 161.581 7.88333 161.531 8.1C161.481 8.3 161.415 8.46667 161.331 8.6H157.231V15.05C157.231 15.8 157.415 16.35 157.781 16.7C158.165 17.05 158.665 17.225 159.281 17.225C159.681 17.225 160.056 17.1583 160.406 17.025C160.773 16.8917 161.09 16.725 161.356 16.525L162.356 18.125C161.973 18.475 161.456 18.7667 160.806 19C160.156 19.2333 159.465 19.35 158.731 19.35C157.515 19.35 156.523 19.0083 155.756 18.325C155.006 17.625 154.631 16.6417 154.631 15.375V8.6ZM165.349 8.6H164.199C163.399 8.6 162.999 8.24167 162.999 7.525C162.999 7.34167 163.024 7.15 163.074 6.95C163.124 6.75 163.191 6.58333 163.274 6.45H165.349V5.325C165.349 3.79167 165.766 2.61667 166.599 1.8C167.449 0.983332 168.683 0.574999 170.299 0.574999C171.249 0.574999 172.033 0.708332 172.649 0.975C173.283 1.24167 173.599 1.61667 173.599 2.1C173.599 2.3 173.541 2.525 173.424 2.775C173.308 3.025 173.149 3.225 172.949 3.375C172.299 2.825 171.508 2.55 170.574 2.55C169.758 2.55 169.116 2.76667 168.649 3.2C168.183 3.63333 167.949 4.30833 167.949 5.225V6.45H170.749C171.549 6.45 171.949 6.80833 171.949 7.525C171.949 7.69167 171.924 7.88333 171.874 8.1C171.824 8.3 171.758 8.46667 171.674 8.6H167.949V19H165.349V8.6ZM173.882 16.175C173.315 15.1583 173.032 14.0083 173.032 12.725C173.032 11.425 173.315 10.275 173.882 9.275C174.465 8.275 175.257 7.49167 176.257 6.925C177.257 6.34167 178.407 6.05 179.707 6.05C181.007 6.05 182.157 6.34167 183.157 6.925C184.157 7.49167 184.94 8.275 185.507 9.275C186.09 10.275 186.382 11.425 186.382 12.725C186.382 14.0083 186.09 15.1583 185.507 16.175C184.94 17.175 184.157 17.9667 183.157 18.55C182.157 19.1167 181.007 19.4 179.707 19.4C178.407 19.4 177.257 19.1167 176.257 18.55C175.257 17.9667 174.465 17.175 173.882 16.175ZM183.707 12.725C183.707 11.3417 183.34 10.2333 182.607 9.4C181.89 8.56667 180.924 8.15 179.707 8.15C178.507 8.15 177.54 8.56667 176.807 9.4C176.074 10.2333 175.707 11.3417 175.707 12.725C175.707 14.0917 176.074 15.2 176.807 16.05C177.54 16.8833 178.507 17.3 179.707 17.3C180.924 17.3 181.89 16.8833 182.607 16.05C183.34 15.2 183.707 14.0917 183.707 12.725ZM189.844 7.575C190.377 7.15833 191.086 6.8 191.969 6.5C192.852 6.2 193.844 6.05 194.944 6.05C195.944 6.05 196.752 6.18333 197.369 6.45C197.986 6.71667 198.294 7.075 198.294 7.525C198.294 7.725 198.236 7.95 198.119 8.2C198.002 8.45 197.877 8.64167 197.744 8.775C197.527 8.625 197.161 8.49167 196.644 8.375C196.144 8.25833 195.644 8.2 195.144 8.2C194.644 8.2 194.144 8.26667 193.644 8.4C193.161 8.51667 192.752 8.68333 192.419 8.9V19H189.844V7.575ZM200.44 7.15C200.84 6.95 201.348 6.76667 201.965 6.6C202.581 6.43333 203.231 6.3 203.915 6.2C204.598 6.1 205.231 6.05 205.815 6.05C208.081 6.05 209.706 6.825 210.69 8.375C211.623 6.825 213.131 6.05 215.215 6.05C216.265 6.05 217.173 6.25 217.94 6.65C218.723 7.03333 219.323 7.58333 219.74 8.3C220.173 9.01667 220.39 9.85 220.39 10.8V19H217.79V11.675C217.79 9.375 216.798 8.225 214.815 8.225C213.798 8.225 213.015 8.55 212.465 9.2C211.931 9.83333 211.665 10.7667 211.665 12V19H209.065V11.9C209.065 9.45 207.965 8.225 205.765 8.225C205.265 8.225 204.756 8.28333 204.24 8.4C203.723 8.5 203.323 8.625 203.04 8.775V19H200.44V7.15ZM235.287 18.925C234.904 19.0083 234.388 19.0833 233.738 19.15C233.088 19.2167 232.413 19.2667 231.713 19.3C231.029 19.3333 230.413 19.35 229.863 19.35C227.729 19.35 226.171 19.0417 225.188 18.425C224.204 17.8083 223.713 16.775 223.713 15.325C223.713 13.9083 224.171 12.8667 225.088 12.2C226.021 11.5167 227.496 11.175 229.513 11.175C229.846 11.175 230.221 11.1833 230.638 11.2C231.054 11.2167 231.454 11.2333 231.838 11.25C232.221 11.2667 232.529 11.2917 232.763 11.325V11.2C232.763 10.15 232.446 9.36667 231.813 8.85C231.179 8.31667 230.263 8.05 229.063 8.05C227.646 8.05 226.479 8.40833 225.562 9.125C225.363 8.99167 225.196 8.80833 225.063 8.575C224.946 8.34167 224.888 8.10833 224.888 7.875C224.888 7.30833 225.254 6.875 225.988 6.575C226.721 6.25833 227.729 6.1 229.013 6.1C233.196 6.1 235.287 7.88333 235.287 11.45V18.925ZM226.288 15.275C226.288 16.0417 226.563 16.6167 227.113 17C227.663 17.3667 228.546 17.55 229.763 17.55C230.279 17.55 230.838 17.525 231.438 17.475C232.038 17.4083 232.471 17.3417 232.738 17.275V13.125C232.604 13.0917 232.363 13.0667 232.013 13.05C231.663 13.0167 231.279 12.9917 230.863 12.975C230.463 12.9417 230.104 12.925 229.787 12.925C228.621 12.925 227.746 13.1167 227.163 13.5C226.579 13.8667 226.288 14.4583 226.288 15.275ZM240.081 8.6H238.931C238.131 8.6 237.731 8.24167 237.731 7.525C237.731 7.34167 237.756 7.15 237.806 6.95C237.856 6.75 237.922 6.58333 238.006 6.45H240.081V3.7C240.081 3.31667 240.206 3.03333 240.456 2.85C240.706 2.65 241.039 2.55 241.456 2.55C241.906 2.55 242.314 2.63333 242.681 2.8V6.45H245.856C246.656 6.45 247.056 6.80833 247.056 7.525C247.056 7.69167 247.031 7.88333 246.981 8.1C246.931 8.3 246.864 8.46667 246.781 8.6H242.681V15.05C242.681 15.8 242.864 16.35 243.231 16.7C243.614 17.05 244.114 17.225 244.731 17.225C245.131 17.225 245.506 17.1583 245.856 17.025C246.222 16.8917 246.539 16.725 246.806 16.525L247.806 18.125C247.422 18.475 246.906 18.7667 246.256 19C245.606 19.2333 244.914 19.35 244.181 19.35C242.964 19.35 241.972 19.0083 241.206 18.325C240.456 17.625 240.081 16.6417 240.081 15.375V8.6ZM259.913 4.2H255.463C254.613 4.2 254.188 3.80833 254.188 3.025C254.188 2.79167 254.221 2.56667 254.288 2.35C254.354 2.11667 254.429 1.94167 254.512 1.825H267.462C268.313 1.825 268.738 2.21667 268.738 3C268.738 3.21667 268.704 3.44167 268.638 3.675C268.571 3.89167 268.496 4.06667 268.413 4.2H262.613V19H259.913V4.2ZM282.126 7.1C282.642 5.75 283.126 4.475 283.576 3.275C283.776 2.74167 284.017 2.36667 284.301 2.15C284.601 1.93333 284.959 1.825 285.376 1.825C285.709 1.825 286.001 1.86667 286.251 1.95C286.501 2.03333 286.701 2.14167 286.851 2.275C286.517 3.14167 286.117 4.16667 285.651 5.35C285.184 6.53333 284.684 7.78333 284.151 9.1C283.617 10.4167 283.084 11.7083 282.551 12.975C282.017 14.2417 281.517 15.4 281.051 16.45C280.601 17.5 280.226 18.35 279.926 19H276.776C276.576 18.5833 276.301 18 275.951 17.25C275.601 16.5 275.217 15.65 274.801 14.7C274.384 13.75 273.951 12.775 273.501 11.775C273.067 10.7583 272.651 9.775 272.251 8.825C271.867 7.85833 271.526 7 271.226 6.25C270.926 5.48333 270.701 4.88333 270.551 4.45C270.351 3.85 270.251 3.38333 270.251 3.05C270.251 2.68333 270.367 2.39167 270.601 2.175C270.851 1.94167 271.176 1.825 271.576 1.825C271.759 1.825 271.976 1.85833 272.226 1.925C272.492 1.975 272.684 2.04167 272.801 2.125C273.201 3.275 273.642 4.51667 274.126 5.85C274.609 7.16667 275.109 8.49167 275.626 9.825C276.142 11.1417 276.634 12.3917 277.101 13.575C277.584 14.7583 278.017 15.775 278.401 16.625C278.617 16.125 278.917 15.3833 279.301 14.4C279.701 13.4 280.142 12.2667 280.626 11C281.126 9.73333 281.626 8.43333 282.126 7.1ZM307.311 24H304.711V17.325C304.628 17.4583 304.428 17.6833 304.111 18C303.811 18.3167 303.369 18.6083 302.786 18.875C302.203 19.1417 301.461 19.275 300.561 19.275C299.444 19.275 298.444 19.025 297.561 18.525C296.694 18.0083 296.003 17.2833 295.486 16.35C294.986 15.4 294.736 14.2667 294.736 12.95C294.736 11.5333 295.036 10.3083 295.636 9.275C296.253 8.24167 297.103 7.45 298.186 6.9C299.286 6.33333 300.561 6.05 302.011 6.05C302.928 6.05 303.878 6.15833 304.861 6.375C305.844 6.575 306.661 6.84167 307.311 7.175V24ZM304.711 8.675C304.394 8.525 303.986 8.4 303.486 8.3C302.986 8.2 302.469 8.15 301.936 8.15C300.519 8.15 299.411 8.55 298.611 9.35C297.828 10.1333 297.436 11.2833 297.436 12.8C297.436 14.1333 297.736 15.1917 298.336 15.975C298.953 16.7417 299.844 17.125 301.011 17.125C302.244 17.125 303.169 16.7333 303.786 15.95C304.403 15.1667 304.711 14.1917 304.711 13.025V8.675ZM317.402 19.4C316.102 19.4 314.952 19.1417 313.952 18.625C312.952 18.1083 312.168 17.3667 311.602 16.4C311.035 15.4167 310.752 14.2583 310.752 12.925C310.752 11.575 311.018 10.3833 311.552 9.35C312.102 8.31667 312.868 7.50833 313.852 6.925C314.835 6.34167 315.993 6.05 317.327 6.05C318.427 6.05 319.385 6.25 320.202 6.65C321.035 7.05 321.685 7.60833 322.152 8.325C322.618 9.04167 322.852 9.88333 322.852 10.85C322.852 12.9167 321.677 13.95 319.327 13.95H313.477C313.627 15 314.068 15.8083 314.802 16.375C315.535 16.9417 316.51 17.225 317.727 17.225C318.36 17.225 319.018 17.15 319.702 17C320.402 16.85 320.935 16.6667 321.302 16.45L322.102 18.325C321.835 18.5083 321.443 18.6833 320.927 18.85C320.427 19.0167 319.86 19.15 319.227 19.25C318.61 19.35 318.002 19.4 317.402 19.4ZM320.377 10.6C320.377 9.71667 320.068 9.05833 319.452 8.625C318.852 8.175 318.135 7.95 317.302 7.95C316.518 7.95 315.835 8.14167 315.252 8.525C314.668 8.89167 314.21 9.39167 313.877 10.025C313.56 10.6417 313.402 11.3417 313.402 12.125H318.677C319.31 12.125 319.752 11.9917 320.002 11.725C320.252 11.4583 320.377 11.0833 320.377 10.6ZM313.777 4.275C313.477 3.975 313.327 3.625 313.327 3.225C313.327 2.825 313.477 2.48333 313.777 2.2C314.093 1.9 314.46 1.75 314.877 1.75C315.31 1.75 315.677 1.9 315.977 2.2C316.277 2.48333 316.427 2.825 316.427 3.225C316.427 3.625 316.277 3.975 315.977 4.275C315.677 4.55833 315.31 4.7 314.877 4.7C314.46 4.7 314.093 4.55833 313.777 4.275ZM318.677 4.275C318.377 3.975 318.227 3.625 318.227 3.225C318.227 2.825 318.377 2.48333 318.677 2.2C318.993 1.9 319.36 1.75 319.777 1.75C320.21 1.75 320.577 1.9 320.877 2.2C321.177 2.48333 321.327 2.825 321.327 3.225C321.327 3.625 321.177 3.975 320.877 4.275C320.577 4.55833 320.21 4.7 319.777 4.7C319.36 4.7 318.993 4.55833 318.677 4.275ZM332.952 8.6H331.802C331.002 8.6 330.602 8.24167 330.602 7.525C330.602 7.34167 330.627 7.15 330.677 6.95C330.727 6.75 330.793 6.58333 330.877 6.45H332.952V3.7C332.952 3.31667 333.077 3.03333 333.327 2.85C333.577 2.65 333.91 2.55 334.327 2.55C334.777 2.55 335.185 2.63333 335.552 2.8V6.45H338.727C339.527 6.45 339.927 6.80833 339.927 7.525C339.927 7.69167 339.902 7.88333 339.852 8.1C339.802 8.3 339.735 8.46667 339.652 8.6H335.552V15.05C335.552 15.8 335.735 16.35 336.102 16.7C336.485 17.05 336.985 17.225 337.602 17.225C338.002 17.225 338.377 17.1583 338.727 17.025C339.093 16.8917 339.41 16.725 339.677 16.525L340.677 18.125C340.293 18.475 339.777 18.7667 339.127 19C338.477 19.2333 337.785 19.35 337.052 19.35C335.835 19.35 334.843 19.0083 334.077 18.325C333.327 17.625 332.952 16.6417 332.952 15.375V8.6ZM348.578 19.4C347.278 19.4 346.128 19.1417 345.128 18.625C344.128 18.1083 343.345 17.3667 342.778 16.4C342.212 15.4167 341.928 14.2583 341.928 12.925C341.928 11.575 342.195 10.3833 342.728 9.35C343.278 8.31667 344.045 7.50833 345.028 6.925C346.012 6.34167 347.17 6.05 348.503 6.05C349.603 6.05 350.562 6.25 351.378 6.65C352.212 7.05 352.862 7.60833 353.328 8.325C353.795 9.04167 354.028 9.88333 354.028 10.85C354.028 12.9167 352.853 13.95 350.503 13.95H344.653C344.803 15 345.245 15.8083 345.978 16.375C346.712 16.9417 347.687 17.225 348.903 17.225C349.537 17.225 350.195 17.15 350.878 17C351.578 16.85 352.112 16.6667 352.478 16.45L353.278 18.325C353.012 18.5083 352.62 18.6833 352.103 18.85C351.603 19.0167 351.037 19.15 350.403 19.25C349.787 19.35 349.178 19.4 348.578 19.4ZM351.553 10.6C351.553 9.71667 351.245 9.05833 350.628 8.625C350.028 8.175 349.312 7.95 348.478 7.95C347.695 7.95 347.012 8.14167 346.428 8.525C345.845 8.89167 345.387 9.39167 345.053 10.025C344.737 10.6417 344.578 11.3417 344.578 12.125H349.853C350.487 12.125 350.928 11.9917 351.178 11.725C351.428 11.4583 351.553 11.0833 351.553 10.6ZM344.953 4.275C344.653 3.975 344.503 3.625 344.503 3.225C344.503 2.825 344.653 2.48333 344.953 2.2C345.27 1.9 345.637 1.75 346.053 1.75C346.487 1.75 346.853 1.9 347.153 2.2C347.453 2.48333 347.603 2.825 347.603 3.225C347.603 3.625 347.453 3.975 347.153 4.275C346.853 4.55833 346.487 4.7 346.053 4.7C345.637 4.7 345.27 4.55833 344.953 4.275ZM349.853 4.275C349.553 3.975 349.403 3.625 349.403 3.225C349.403 2.825 349.553 2.48333 349.853 2.2C350.17 1.9 350.537 1.75 350.953 1.75C351.387 1.75 351.753 1.9 352.053 2.2C352.353 2.48333 352.503 2.825 352.503 3.225C352.503 3.625 352.353 3.975 352.053 4.275C351.753 4.55833 351.387 4.7 350.953 4.7C350.537 4.7 350.17 4.55833 349.853 4.275ZM1.05 35.175C1.41667 34.975 1.9 34.7917 2.5 34.625C3.11667 34.4417 3.775 34.3 4.475 34.2C5.175 34.1 5.83333 34.05 6.45 34.05C7.88333 34.05 9.13333 34.3417 10.2 34.925C11.2667 35.4917 12.0917 36.2917 12.675 37.325C13.275 38.3583 13.575 39.5667 13.575 40.95C13.575 42.2 13.325 43.2917 12.825 44.225C12.3417 45.1583 11.6583 45.8833 10.775 46.4C9.89167 46.9167 8.86667 47.175 7.7 47.175C6.75 47.175 5.90833 47.0167 5.175 46.7C4.44167 46.3833 3.925 46.0167 3.625 45.6V52H1.05V35.175ZM7.25 45.025C8.45 45.025 9.35 44.6417 9.95 43.875C10.5667 43.0917 10.875 42.0583 10.875 40.775C10.875 39.275 10.475 38.1333 9.675 37.35C8.875 36.55 7.78333 36.15 6.4 36.15C5.91667 36.15 5.425 36.2 4.925 36.3C4.425 36.3833 3.99167 36.5083 3.625 36.675V42.825C3.95833 43.5417 4.44167 44.0917 5.075 44.475C5.70833 44.8417 6.43333 45.025 7.25 45.025ZM23.0168 47.4C21.7168 47.4 20.5668 47.1417 19.5668 46.625C18.5668 46.1083 17.7835 45.3667 17.2168 44.4C16.6501 43.4167 16.3668 42.2583 16.3668 40.925C16.3668 39.575 16.6335 38.3833 17.1668 37.35C17.7168 36.3167 18.4835 35.5083 19.4668 34.925C20.4501 34.3417 21.6085 34.05 22.9418 34.05C24.0418 34.05 25.0001 34.25 25.8168 34.65C26.6501 35.05 27.3001 35.6083 27.7668 36.325C28.2335 37.0417 28.4668 37.8833 28.4668 38.85C28.4668 40.9167 27.2918 41.95 24.9418 41.95H19.0918C19.2418 43 19.6835 43.8083 20.4168 44.375C21.1501 44.9417 22.1251 45.225 23.3418 45.225C23.9751 45.225 24.6335 45.15 25.3168 45C26.0168 44.85 26.5501 44.6667 26.9168 44.45L27.7168 46.325C27.4501 46.5083 27.0585 46.6833 26.5418 46.85C26.0418 47.0167 25.4751 47.15 24.8418 47.25C24.2251 47.35 23.6168 47.4 23.0168 47.4ZM25.9918 38.6C25.9918 37.7167 25.6835 37.0583 25.0668 36.625C24.4668 36.175 23.7501 35.95 22.9168 35.95C22.1335 35.95 21.4501 36.1417 20.8668 36.525C20.2835 36.8917 19.8251 37.3917 19.4918 38.025C19.1751 38.6417 19.0168 39.3417 19.0168 40.125H24.2918C24.9251 40.125 25.3668 39.9917 25.6168 39.725C25.8668 39.4583 25.9918 39.0833 25.9918 38.6ZM19.3918 32.275C19.0918 31.975 18.9418 31.625 18.9418 31.225C18.9418 30.825 19.0918 30.4833 19.3918 30.2C19.7085 29.9 20.0751 29.75 20.4918 29.75C20.9251 29.75 21.2918 29.9 21.5918 30.2C21.8918 30.4833 22.0418 30.825 22.0418 31.225C22.0418 31.625 21.8918 31.975 21.5918 32.275C21.2918 32.5583 20.9251 32.7 20.4918 32.7C20.0751 32.7 19.7085 32.5583 19.3918 32.275ZM24.2918 32.275C23.9918 31.975 23.8418 31.625 23.8418 31.225C23.8418 30.825 23.9918 30.4833 24.2918 30.2C24.6085 29.9 24.9751 29.75 25.3918 29.75C25.8251 29.75 26.1918 29.9 26.4918 30.2C26.7918 30.4833 26.9418 30.825 26.9418 31.225C26.9418 31.625 26.7918 31.975 26.4918 32.275C26.1918 32.5583 25.8251 32.7 25.3918 32.7C24.9751 32.7 24.6085 32.5583 24.2918 32.275ZM31.8117 35.575C32.3451 35.1583 33.0534 34.8 33.9367 34.5C34.8201 34.2 35.8117 34.05 36.9117 34.05C37.9117 34.05 38.7201 34.1833 39.3367 34.45C39.9534 34.7167 40.2617 35.075 40.2617 35.525C40.2617 35.725 40.2034 35.95 40.0867 36.2C39.9701 36.45 39.8451 36.6417 39.7117 36.775C39.4951 36.625 39.1284 36.4917 38.6117 36.375C38.1117 36.2583 37.6117 36.2 37.1117 36.2C36.6117 36.2 36.1117 36.2667 35.6117 36.4C35.1284 36.5167 34.7201 36.6833 34.3867 36.9V47H31.8117V35.575ZM51.6074 46.3C50.5741 47.0333 49.2074 47.4 47.5074 47.4C46.7574 47.4 45.9908 47.325 45.2074 47.175C44.4241 47.0417 43.7074 46.8583 43.0574 46.625C42.4241 46.3917 41.9324 46.1333 41.5824 45.85L42.6074 44.05C43.2074 44.45 43.9324 44.775 44.7824 45.025C45.6491 45.2583 46.5491 45.375 47.4824 45.375C48.3824 45.375 49.0991 45.25 49.6324 45C50.1824 44.7333 50.4574 44.3 50.4574 43.7C50.4574 43.2667 50.2991 42.9083 49.9824 42.625C49.6658 42.3417 49.0991 42.1417 48.2824 42.025L46.1324 41.7C44.6158 41.4667 43.4991 41.0583 42.7824 40.475C42.0824 39.875 41.7324 39.05 41.7324 38C41.7324 36.7333 42.1991 35.7583 43.1324 35.075C44.0658 34.3917 45.4074 34.05 47.1574 34.05C47.9574 34.05 48.7408 34.125 49.5074 34.275C50.2908 34.4083 50.9324 34.6 51.4324 34.85C52.1158 35.2 52.4574 35.625 52.4574 36.125C52.4574 36.375 52.3741 36.625 52.2074 36.875C52.0574 37.1083 51.8658 37.2917 51.6324 37.425C51.2158 37.0083 50.6074 36.6667 49.8074 36.4C49.0074 36.1333 48.1658 36 47.2824 36C46.3824 36 45.6574 36.15 45.1074 36.45C44.5741 36.75 44.3074 37.1917 44.3074 37.775C44.3074 38.1917 44.4824 38.525 44.8324 38.775C45.1824 39.0083 45.7824 39.1917 46.6324 39.325L48.7574 39.625C50.2908 39.8417 51.4074 40.2583 52.1074 40.875C52.8241 41.475 53.1824 42.275 53.1824 43.275C53.1824 44.5583 52.6574 45.5667 51.6074 46.3ZM56.6652 29.725C56.6652 29.3417 56.7902 29.0583 57.0402 28.875C57.2902 28.675 57.6236 28.575 58.0402 28.575C58.4902 28.575 58.8986 28.6583 59.2652 28.825V35.95C59.6486 35.3667 60.2069 34.9083 60.9402 34.575C61.6736 34.225 62.5152 34.05 63.4652 34.05C64.9986 34.05 66.2152 34.5 67.1152 35.4C68.0319 36.3 68.4902 37.55 68.4902 39.15V47H65.8902V39.675C65.8902 38.4917 65.6152 37.625 65.0652 37.075C64.5152 36.5083 63.7486 36.225 62.7652 36.225C61.5986 36.225 60.7236 36.5833 60.1402 37.3C59.5569 38.0167 59.2652 38.9833 59.2652 40.2V47H56.6652V29.725ZM73.3082 36.6H72.1582C71.3582 36.6 70.9582 36.2417 70.9582 35.525C70.9582 35.3417 70.9832 35.15 71.0332 34.95C71.0832 34.75 71.1499 34.5833 71.2332 34.45H73.3082V31.7C73.3082 31.3167 73.4332 31.0333 73.6832 30.85C73.9332 30.65 74.2665 30.55 74.6832 30.55C75.1332 30.55 75.5415 30.6333 75.9082 30.8V34.45H79.0832C79.8832 34.45 80.2832 34.8083 80.2832 35.525C80.2832 35.6917 80.2582 35.8833 80.2082 36.1C80.1582 36.3 80.0915 36.4667 80.0082 36.6H75.9082V43.05C75.9082 43.8 76.0915 44.35 76.4582 44.7C76.8415 45.05 77.3415 45.225 77.9582 45.225C78.3582 45.225 78.7332 45.1583 79.0832 45.025C79.4499 44.8917 79.7665 44.725 80.0332 44.525L81.0332 46.125C80.6499 46.475 80.1332 46.7667 79.4832 47C78.8332 47.2333 78.1415 47.35 77.4082 47.35C76.1915 47.35 75.1999 47.0083 74.4332 46.325C73.6832 45.625 73.3082 44.6417 73.3082 43.375V36.6ZM93.7348 46.925C93.3514 47.0083 92.8348 47.0833 92.1848 47.15C91.5348 47.2167 90.8598 47.2667 90.1598 47.3C89.4764 47.3333 88.8598 47.35 88.3098 47.35C86.1764 47.35 84.6181 47.0417 83.6348 46.425C82.6514 45.8083 82.1598 44.775 82.1598 43.325C82.1598 41.9083 82.6181 40.8667 83.5348 40.2C84.4681 39.5167 85.9431 39.175 87.9598 39.175C88.2931 39.175 88.6681 39.1833 89.0848 39.2C89.5014 39.2167 89.9014 39.2333 90.2848 39.25C90.6681 39.2667 90.9764 39.2917 91.2098 39.325V39.2C91.2098 38.15 90.8931 37.3667 90.2598 36.85C89.6264 36.3167 88.7098 36.05 87.5098 36.05C86.0931 36.05 84.9264 36.4083 84.0098 37.125C83.8098 36.9917 83.6431 36.8083 83.5098 36.575C83.3931 36.3417 83.3348 36.1083 83.3348 35.875C83.3348 35.3083 83.7014 34.875 84.4348 34.575C85.1681 34.2583 86.1764 34.1 87.4598 34.1C91.6431 34.1 93.7348 35.8833 93.7348 39.45V46.925ZM84.7348 43.275C84.7348 44.0417 85.0098 44.6167 85.5598 45C86.1098 45.3667 86.9931 45.55 88.2098 45.55C88.7264 45.55 89.2848 45.525 89.8848 45.475C90.4848 45.4083 90.9181 45.3417 91.1848 45.275V41.125C91.0514 41.0917 90.8098 41.0667 90.4598 41.05C90.1098 41.0167 89.7264 40.9917 89.3098 40.975C88.9098 40.9417 88.5514 40.925 88.2348 40.925C87.0681 40.925 86.1931 41.1167 85.6098 41.5C85.0264 41.8667 84.7348 42.4583 84.7348 43.275ZM98.5279 36.6H97.3779C96.5779 36.6 96.1779 36.2417 96.1779 35.525C96.1779 35.3417 96.2029 35.15 96.2529 34.95C96.3029 34.75 96.3696 34.5833 96.4529 34.45H98.5279V31.7C98.5279 31.3167 98.6529 31.0333 98.9029 30.85C99.1529 30.65 99.4863 30.55 99.9029 30.55C100.353 30.55 100.761 30.6333 101.128 30.8V34.45H104.303C105.103 34.45 105.503 34.8083 105.503 35.525C105.503 35.6917 105.478 35.8833 105.428 36.1C105.378 36.3 105.311 36.4667 105.228 36.6H101.128V43.05C101.128 43.8 101.311 44.35 101.678 44.7C102.061 45.05 102.561 45.225 103.178 45.225C103.578 45.225 103.953 45.1583 104.303 45.025C104.67 44.8917 104.986 44.725 105.253 44.525L106.253 46.125C105.87 46.475 105.353 46.7667 104.703 47C104.053 47.2333 103.361 47.35 102.628 47.35C101.411 47.35 100.42 47.0083 99.6529 46.325C98.9029 45.625 98.5279 44.6417 98.5279 43.375V36.6ZM114.154 47.4C112.854 47.4 111.704 47.1417 110.704 46.625C109.704 46.1083 108.921 45.3667 108.354 44.4C107.788 43.4167 107.504 42.2583 107.504 40.925C107.504 39.575 107.771 38.3833 108.304 37.35C108.854 36.3167 109.621 35.5083 110.604 34.925C111.588 34.3417 112.746 34.05 114.079 34.05C115.179 34.05 116.138 34.25 116.954 34.65C117.788 35.05 118.438 35.6083 118.904 36.325C119.371 37.0417 119.604 37.8833 119.604 38.85C119.604 40.9167 118.429 41.95 116.079 41.95H110.229C110.379 43 110.821 43.8083 111.554 44.375C112.288 44.9417 113.263 45.225 114.479 45.225C115.113 45.225 115.771 45.15 116.454 45C117.154 44.85 117.688 44.6667 118.054 44.45L118.854 46.325C118.588 46.5083 118.196 46.6833 117.679 46.85C117.179 47.0167 116.613 47.15 115.979 47.25C115.363 47.35 114.754 47.4 114.154 47.4ZM117.129 38.6C117.129 37.7167 116.821 37.0583 116.204 36.625C115.604 36.175 114.888 35.95 114.054 35.95C113.271 35.95 112.588 36.1417 112.004 36.525C111.421 36.8917 110.963 37.3917 110.629 38.025C110.313 38.6417 110.154 39.3417 110.154 40.125H115.429C116.063 40.125 116.504 39.9917 116.754 39.725C117.004 39.4583 117.129 39.0833 117.129 38.6ZM122.949 35.15C123.333 34.9667 123.849 34.7917 124.499 34.625C125.166 34.4583 125.866 34.325 126.599 34.225C127.349 34.1083 128.033 34.05 128.649 34.05C129.849 34.05 130.899 34.2667 131.799 34.7C132.716 35.1167 133.424 35.7083 133.924 36.475C134.441 37.2417 134.699 38.1583 134.699 39.225V47H132.099V39.95C132.099 37.4667 130.899 36.225 128.499 36.225C127.966 36.225 127.424 36.2833 126.874 36.4C126.324 36.5 125.883 36.6333 125.549 36.8V47H122.949V35.15ZM144.824 35.15C145.208 34.9667 145.724 34.7917 146.374 34.625C147.041 34.4583 147.741 34.325 148.474 34.225C149.224 34.1083 149.908 34.05 150.524 34.05C151.724 34.05 152.774 34.2667 153.674 34.7C154.591 35.1167 155.299 35.7083 155.799 36.475C156.316 37.2417 156.574 38.1583 156.574 39.225V47H153.974V39.95C153.974 37.4667 152.774 36.225 150.374 36.225C149.841 36.225 149.299 36.2833 148.749 36.4C148.199 36.5 147.758 36.6333 147.424 36.8V47H144.824V35.15ZM166.669 47.4C165.369 47.4 164.219 47.1417 163.219 46.625C162.219 46.1083 161.436 45.3667 160.869 44.4C160.302 43.4167 160.019 42.2583 160.019 40.925C160.019 39.575 160.286 38.3833 160.819 37.35C161.369 36.3167 162.136 35.5083 163.119 34.925C164.102 34.3417 165.261 34.05 166.594 34.05C167.694 34.05 168.652 34.25 169.469 34.65C170.302 35.05 170.952 35.6083 171.419 36.325C171.886 37.0417 172.119 37.8833 172.119 38.85C172.119 40.9167 170.944 41.95 168.594 41.95H162.744C162.894 43 163.336 43.8083 164.069 44.375C164.802 44.9417 165.777 45.225 166.994 45.225C167.627 45.225 168.286 45.15 168.969 45C169.669 44.85 170.202 44.6667 170.569 44.45L171.369 46.325C171.102 46.5083 170.711 46.6833 170.194 46.85C169.694 47.0167 169.127 47.15 168.494 47.25C167.877 47.35 167.269 47.4 166.669 47.4ZM169.644 38.6C169.644 37.7167 169.336 37.0583 168.719 36.625C168.119 36.175 167.402 35.95 166.569 35.95C165.786 35.95 165.102 36.1417 164.519 36.525C163.936 36.8917 163.477 37.3917 163.144 38.025C162.827 38.6417 162.669 39.3417 162.669 40.125H167.944C168.577 40.125 169.019 39.9917 169.269 39.725C169.519 39.4583 169.644 39.0833 169.644 38.6ZM163.044 32.275C162.744 31.975 162.594 31.625 162.594 31.225C162.594 30.825 162.744 30.4833 163.044 30.2C163.361 29.9 163.727 29.75 164.144 29.75C164.577 29.75 164.944 29.9 165.244 30.2C165.544 30.4833 165.694 30.825 165.694 31.225C165.694 31.625 165.544 31.975 165.244 32.275C164.944 32.5583 164.577 32.7 164.144 32.7C163.727 32.7 163.361 32.5583 163.044 32.275ZM167.944 32.275C167.644 31.975 167.494 31.625 167.494 31.225C167.494 30.825 167.644 30.4833 167.944 30.2C168.261 29.9 168.627 29.75 169.044 29.75C169.477 29.75 169.844 29.9 170.144 30.2C170.444 30.4833 170.594 30.825 170.594 31.225C170.594 31.625 170.444 31.975 170.144 32.275C169.844 32.5583 169.477 32.7 169.044 32.7C168.627 32.7 168.261 32.5583 167.944 32.275ZM181.494 29.725C181.494 29.3417 181.619 29.0583 181.869 28.875C182.119 28.675 182.453 28.575 182.869 28.575C183.319 28.575 183.728 28.6583 184.094 28.825V39.35L188.994 35.525C189.428 35.1917 189.836 34.9333 190.219 34.75C190.603 34.5667 190.961 34.475 191.294 34.475C192.011 34.475 192.544 34.775 192.894 35.375L186.769 40.075C187.569 40.6583 188.378 41.3333 189.194 42.1C190.011 42.85 190.786 43.6417 191.519 44.475C192.269 45.3083 192.936 46.15 193.519 47H190.269C189.786 46.3333 189.194 45.6417 188.494 44.925C187.811 44.2083 187.086 43.5167 186.319 42.85C185.553 42.1667 184.811 41.575 184.094 41.075V47H181.494V29.725ZM195.415 44.175C194.848 43.1583 194.565 42.0083 194.565 40.725C194.565 39.425 194.848 38.275 195.415 37.275C195.998 36.275 196.79 35.4917 197.79 34.925C198.79 34.3417 199.94 34.05 201.24 34.05C202.54 34.05 203.69 34.3417 204.69 34.925C205.69 35.4917 206.473 36.275 207.04 37.275C207.623 38.275 207.915 39.425 207.915 40.725C207.915 42.0083 207.623 43.1583 207.04 44.175C206.473 45.175 205.69 45.9667 204.69 46.55C203.69 47.1167 202.54 47.4 201.24 47.4C199.94 47.4 198.79 47.1167 197.79 46.55C196.79 45.9667 195.998 45.175 195.415 44.175ZM205.24 40.725C205.24 39.3417 204.873 38.2333 204.14 37.4C203.423 36.5667 202.457 36.15 201.24 36.15C200.04 36.15 199.073 36.5667 198.34 37.4C197.607 38.2333 197.24 39.3417 197.24 40.725C197.24 42.0917 197.607 43.2 198.34 44.05C199.073 44.8833 200.04 45.3 201.24 45.3C202.457 45.3 203.423 44.8833 204.14 44.05C204.873 43.2 205.24 42.0917 205.24 40.725ZM211.377 35.15C211.777 34.95 212.285 34.7667 212.902 34.6C213.519 34.4333 214.169 34.3 214.852 34.2C215.535 34.1 216.169 34.05 216.752 34.05C219.019 34.05 220.644 34.825 221.627 36.375C222.56 34.825 224.069 34.05 226.152 34.05C227.202 34.05 228.11 34.25 228.877 34.65C229.66 35.0333 230.26 35.5833 230.677 36.3C231.11 37.0167 231.327 37.85 231.327 38.8V47H228.727V39.675C228.727 37.375 227.735 36.225 225.752 36.225C224.735 36.225 223.952 36.55 223.402 37.2C222.869 37.8333 222.602 38.7667 222.602 40V47H220.002V39.9C220.002 37.45 218.902 36.225 216.702 36.225C216.202 36.225 215.694 36.2833 215.177 36.4C214.66 36.5 214.26 36.625 213.977 36.775V47H211.377V35.15ZM235.425 29.725C235.425 29.3417 235.55 29.0583 235.8 28.875C236.05 28.675 236.383 28.575 236.8 28.575C237.25 28.575 237.658 28.6583 238.025 28.825V36.075C238.392 35.475 238.933 35 239.65 34.65C240.367 34.2833 241.2 34.1 242.15 34.1C243.283 34.1 244.283 34.3583 245.15 34.875C246.033 35.375 246.725 36.1 247.225 37.05C247.742 37.9833 248 39.1167 248 40.45C248 42.5667 247.325 44.25 245.975 45.5C244.625 46.7333 242.683 47.35 240.15 47.35C239.717 47.35 239.183 47.3333 238.55 47.3C237.917 47.2667 237.308 47.2167 236.725 47.15C236.142 47.1 235.708 47.05 235.425 47V29.725ZM244.325 37.425C243.675 36.6417 242.767 36.25 241.6 36.25C240.483 36.25 239.608 36.6167 238.975 37.35C238.342 38.0833 238.025 39.0917 238.025 40.375V45.05C238.225 45.1167 238.575 45.1833 239.075 45.25C239.575 45.3 240.042 45.325 240.475 45.325C242.092 45.325 243.3 44.925 244.1 44.125C244.9 43.325 245.3 42.1667 245.3 40.65C245.3 39.2667 244.975 38.1917 244.325 37.425ZM254.216 47H251.616V35.6C251.616 35.2167 251.741 34.9333 251.991 34.75C252.241 34.55 252.574 34.45 252.991 34.45C253.441 34.45 253.849 34.5333 254.216 34.7V47ZM251.791 31.275C251.474 30.9583 251.316 30.5833 251.316 30.15C251.316 29.7167 251.474 29.35 251.791 29.05C252.107 28.7333 252.482 28.575 252.916 28.575C253.349 28.575 253.724 28.7333 254.041 29.05C254.357 29.35 254.516 29.7167 254.516 30.15C254.516 30.5833 254.357 30.9583 254.041 31.275C253.724 31.575 253.349 31.725 252.916 31.725C252.482 31.725 252.107 31.575 251.791 31.275ZM258.496 35.15C258.88 34.9667 259.396 34.7917 260.046 34.625C260.713 34.4583 261.413 34.325 262.146 34.225C262.896 34.1083 263.58 34.05 264.196 34.05C265.396 34.05 266.446 34.2667 267.346 34.7C268.263 35.1167 268.971 35.7083 269.471 36.475C269.988 37.2417 270.246 38.1583 270.246 39.225V47H267.646V39.95C267.646 37.4667 266.446 36.225 264.046 36.225C263.513 36.225 262.971 36.2833 262.421 36.4C261.871 36.5 261.43 36.6333 261.096 36.8V47H258.496V35.15ZM277.116 47H274.516V35.6C274.516 35.2167 274.641 34.9333 274.891 34.75C275.141 34.55 275.474 34.45 275.891 34.45C276.341 34.45 276.749 34.5333 277.116 34.7V47ZM274.691 31.275C274.374 30.9583 274.216 30.5833 274.216 30.15C274.216 29.7167 274.374 29.35 274.691 29.05C275.008 28.7333 275.383 28.575 275.816 28.575C276.249 28.575 276.624 28.7333 276.941 29.05C277.258 29.35 277.416 29.7167 277.416 30.15C277.416 30.5833 277.258 30.9583 276.941 31.275C276.624 31.575 276.249 31.725 275.816 31.725C275.383 31.725 275.008 31.575 274.691 31.275ZM281.397 35.15C281.797 34.95 282.305 34.7667 282.922 34.6C283.538 34.4333 284.188 34.3 284.872 34.2C285.555 34.1 286.188 34.05 286.772 34.05C289.038 34.05 290.663 34.825 291.647 36.375C292.58 34.825 294.088 34.05 296.172 34.05C297.222 34.05 298.13 34.25 298.897 34.65C299.68 35.0333 300.28 35.5833 300.697 36.3C301.13 37.0167 301.347 37.85 301.347 38.8V47H298.747V39.675C298.747 37.375 297.755 36.225 295.772 36.225C294.755 36.225 293.972 36.55 293.422 37.2C292.888 37.8333 292.622 38.7667 292.622 40V47H290.022V39.9C290.022 37.45 288.922 36.225 286.722 36.225C286.222 36.225 285.713 36.2833 285.197 36.4C284.68 36.5 284.28 36.625 283.997 36.775V47H281.397V35.15ZM311.475 35.15C311.875 34.95 312.383 34.7667 313 34.6C313.616 34.4333 314.266 34.3 314.95 34.2C315.633 34.1 316.266 34.05 316.85 34.05C319.116 34.05 320.741 34.825 321.725 36.375C322.658 34.825 324.166 34.05 326.25 34.05C327.3 34.05 328.208 34.25 328.975 34.65C329.758 35.0333 330.358 35.5833 330.775 36.3C331.208 37.0167 331.425 37.85 331.425 38.8V47H328.825V39.675C328.825 37.375 327.833 36.225 325.85 36.225C324.833 36.225 324.05 36.55 323.5 37.2C322.966 37.8333 322.7 38.7667 322.7 40V47H320.1V39.9C320.1 37.45 319 36.225 316.8 36.225C316.3 36.225 315.791 36.2833 315.275 36.4C314.758 36.5 314.358 36.625 314.075 36.775V47H311.475V35.15ZM341.523 47.4C340.223 47.4 339.073 47.1417 338.073 46.625C337.073 46.1083 336.289 45.3667 335.723 44.4C335.156 43.4167 334.873 42.2583 334.873 40.925C334.873 39.575 335.139 38.3833 335.673 37.35C336.223 36.3167 336.989 35.5083 337.973 34.925C338.956 34.3417 340.114 34.05 341.448 34.05C342.548 34.05 343.506 34.25 344.323 34.65C345.156 35.05 345.806 35.6083 346.273 36.325C346.739 37.0417 346.973 37.8833 346.973 38.85C346.973 40.9167 345.798 41.95 343.448 41.95H337.598C337.748 43 338.189 43.8083 338.923 44.375C339.656 44.9417 340.631 45.225 341.848 45.225C342.481 45.225 343.139 45.15 343.823 45C344.523 44.85 345.056 44.6667 345.423 44.45L346.223 46.325C345.956 46.5083 345.564 46.6833 345.048 46.85C344.548 47.0167 343.981 47.15 343.348 47.25C342.731 47.35 342.123 47.4 341.523 47.4ZM344.498 38.6C344.498 37.7167 344.189 37.0583 343.573 36.625C342.973 36.175 342.256 35.95 341.423 35.95C340.639 35.95 339.956 36.1417 339.373 36.525C338.789 36.8917 338.331 37.3917 337.998 38.025C337.681 38.6417 337.523 39.3417 337.523 40.125H342.798C343.431 40.125 343.873 39.9917 344.123 39.725C344.373 39.4583 344.498 39.0833 344.498 38.6ZM356.348 35.175C356.715 34.975 357.198 34.7917 357.798 34.625C358.415 34.4417 359.073 34.3 359.773 34.2C360.473 34.1 361.131 34.05 361.748 34.05C363.181 34.05 364.431 34.3417 365.498 34.925C366.565 35.4917 367.39 36.2917 367.973 37.325C368.573 38.3583 368.873 39.5667 368.873 40.95C368.873 42.2 368.623 43.2917 368.123 44.225C367.64 45.1583 366.956 45.8833 366.073 46.4C365.19 46.9167 364.165 47.175 362.998 47.175C362.048 47.175 361.206 47.0167 360.473 46.7C359.74 46.3833 359.223 46.0167 358.923 45.6V52H356.348V35.175ZM362.548 45.025C363.748 45.025 364.648 44.6417 365.248 43.875C365.865 43.0917 366.173 42.0583 366.173 40.775C366.173 39.275 365.773 38.1333 364.973 37.35C364.173 36.55 363.081 36.15 361.698 36.15C361.215 36.15 360.723 36.2 360.223 36.3C359.723 36.3833 359.29 36.5083 358.923 36.675V42.825C359.256 43.5417 359.74 44.0917 360.373 44.475C361.006 44.8417 361.731 45.025 362.548 45.025ZM374.915 47H372.315V29.725C372.315 29.3417 372.44 29.0583 372.69 28.875C372.94 28.675 373.273 28.575 373.69 28.575C374.14 28.575 374.548 28.6583 374.915 28.825V47ZM389.804 46.925C389.421 47.0083 388.904 47.0833 388.254 47.15C387.604 47.2167 386.929 47.2667 386.229 47.3C385.546 47.3333 384.929 47.35 384.379 47.35C382.246 47.35 380.687 47.0417 379.704 46.425C378.721 45.8083 378.229 44.775 378.229 43.325C378.229 41.9083 378.687 40.8667 379.604 40.2C380.537 39.5167 382.012 39.175 384.029 39.175C384.362 39.175 384.737 39.1833 385.154 39.2C385.571 39.2167 385.971 39.2333 386.354 39.25C386.737 39.2667 387.046 39.2917 387.279 39.325V39.2C387.279 38.15 386.962 37.3667 386.329 36.85C385.696 36.3167 384.779 36.05 383.579 36.05C382.162 36.05 380.996 36.4083 380.079 37.125C379.879 36.9917 379.712 36.8083 379.579 36.575C379.462 36.3417 379.404 36.1083 379.404 35.875C379.404 35.3083 379.771 34.875 380.504 34.575C381.237 34.2583 382.246 34.1 383.529 34.1C387.712 34.1 389.804 35.8833 389.804 39.45V46.925ZM380.804 43.275C380.804 44.0417 381.079 44.6167 381.629 45C382.179 45.3667 383.062 45.55 384.279 45.55C384.796 45.55 385.354 45.525 385.954 45.475C386.554 45.4083 386.987 45.3417 387.254 45.275V41.125C387.121 41.0917 386.879 41.0667 386.529 41.05C386.179 41.0167 385.796 40.9917 385.379 40.975C384.979 40.9417 384.621 40.925 384.304 40.925C383.137 40.925 382.262 41.1167 381.679 41.5C381.096 41.8667 380.804 42.4583 380.804 43.275ZM393.872 35.15C394.256 34.9667 394.772 34.7917 395.422 34.625C396.089 34.4583 396.789 34.325 397.522 34.225C398.272 34.1083 398.956 34.05 399.572 34.05C400.772 34.05 401.822 34.2667 402.722 34.7C403.639 35.1167 404.347 35.7083 404.847 36.475C405.364 37.2417 405.622 38.1583 405.622 39.225V47H403.022V39.95C403.022 37.4667 401.822 36.225 399.422 36.225C398.889 36.225 398.347 36.2833 397.797 36.4C397.247 36.5 396.806 36.6333 396.472 36.8V47H393.872V35.15ZM415.717 47.4C414.417 47.4 413.267 47.1417 412.267 46.625C411.267 46.1083 410.484 45.3667 409.917 44.4C409.35 43.4167 409.067 42.2583 409.067 40.925C409.067 39.575 409.334 38.3833 409.867 37.35C410.417 36.3167 411.184 35.5083 412.167 34.925C413.15 34.3417 414.309 34.05 415.642 34.05C416.742 34.05 417.7 34.25 418.517 34.65C419.35 35.05 420 35.6083 420.467 36.325C420.934 37.0417 421.167 37.8833 421.167 38.85C421.167 40.9167 419.992 41.95 417.642 41.95H411.792C411.942 43 412.384 43.8083 413.117 44.375C413.85 44.9417 414.825 45.225 416.042 45.225C416.675 45.225 417.334 45.15 418.017 45C418.717 44.85 419.25 44.6667 419.617 44.45L420.417 46.325C420.15 46.5083 419.759 46.6833 419.242 46.85C418.742 47.0167 418.175 47.15 417.542 47.25C416.925 47.35 416.317 47.4 415.717 47.4ZM418.692 38.6C418.692 37.7167 418.384 37.0583 417.767 36.625C417.167 36.175 416.45 35.95 415.617 35.95C414.834 35.95 414.15 36.1417 413.567 36.525C412.984 36.8917 412.525 37.3917 412.192 38.025C411.875 38.6417 411.717 39.3417 411.717 40.125H416.992C417.625 40.125 418.067 39.9917 418.317 39.725C418.567 39.4583 418.692 39.0833 418.692 38.6ZM425.237 36.6H424.087C423.287 36.6 422.887 36.2417 422.887 35.525C422.887 35.3417 422.912 35.15 422.962 34.95C423.012 34.75 423.079 34.5833 423.162 34.45H425.237V31.7C425.237 31.3167 425.362 31.0333 425.612 30.85C425.862 30.65 426.195 30.55 426.612 30.55C427.062 30.55 427.47 30.6333 427.837 30.8V34.45H431.012C431.812 34.45 432.212 34.8083 432.212 35.525C432.212 35.6917 432.187 35.8833 432.137 36.1C432.087 36.3 432.02 36.4667 431.937 36.6H427.837V43.05C427.837 43.8 428.02 44.35 428.387 44.7C428.77 45.05 429.27 45.225 429.887 45.225C430.287 45.225 430.662 45.1583 431.012 45.025C431.379 44.8917 431.695 44.725 431.962 44.525L432.962 46.125C432.579 46.475 432.062 46.7667 431.412 47C430.762 47.2333 430.07 47.35 429.337 47.35C428.12 47.35 427.129 47.0083 426.362 46.325C425.612 45.625 425.237 44.6417 425.237 43.375V36.6ZM446.894 47.4C445.594 47.4 444.444 47.1417 443.444 46.625C442.444 46.1083 441.66 45.3667 441.094 44.4C440.527 43.4167 440.244 42.2583 440.244 40.925C440.244 39.575 440.51 38.3833 441.044 37.35C441.594 36.3167 442.36 35.5083 443.344 34.925C444.327 34.3417 445.485 34.05 446.819 34.05C447.919 34.05 448.877 34.25 449.694 34.65C450.527 35.05 451.177 35.6083 451.644 36.325C452.11 37.0417 452.344 37.8833 452.344 38.85C452.344 40.9167 451.169 41.95 448.819 41.95H442.969C443.119 43 443.56 43.8083 444.294 44.375C445.027 44.9417 446.002 45.225 447.219 45.225C447.852 45.225 448.51 45.15 449.194 45C449.894 44.85 450.427 44.6667 450.794 44.45L451.594 46.325C451.327 46.5083 450.935 46.6833 450.419 46.85C449.919 47.0167 449.352 47.15 448.719 47.25C448.102 47.35 447.494 47.4 446.894 47.4ZM449.869 38.6C449.869 37.7167 449.56 37.0583 448.944 36.625C448.344 36.175 447.627 35.95 446.794 35.95C446.01 35.95 445.327 36.1417 444.744 36.525C444.16 36.8917 443.702 37.3917 443.369 38.025C443.052 38.6417 442.894 39.3417 442.894 40.125H448.169C448.802 40.125 449.244 39.9917 449.494 39.725C449.744 39.4583 449.869 39.0833 449.869 38.6ZM3.825 75H1.225V63.6C1.225 63.2167 1.35 62.9333 1.6 62.75C1.85 62.55 2.18333 62.45 2.6 62.45C3.05 62.45 3.45833 62.5333 3.825 62.7V75ZM1.4 59.275C1.08333 58.9583 0.925 58.5833 0.925 58.15C0.925 57.7167 1.08333 57.35 1.4 57.05C1.71667 56.7333 2.09167 56.575 2.525 56.575C2.95833 56.575 3.33333 56.7333 3.65 57.05C3.96667 57.35 4.125 57.7167 4.125 58.15C4.125 58.5833 3.96667 58.9583 3.65 59.275C3.33333 59.575 2.95833 59.725 2.525 59.725C2.09167 59.725 1.71667 59.575 1.4 59.275ZM8.10566 63.15C8.489 62.9667 9.00566 62.7917 9.65566 62.625C10.3223 62.4583 11.0223 62.325 11.7557 62.225C12.5057 62.1083 13.189 62.05 13.8057 62.05C15.0057 62.05 16.0557 62.2667 16.9557 62.7C17.8723 63.1167 18.5807 63.7083 19.0807 64.475C19.5973 65.2417 19.8557 66.1583 19.8557 67.225V75H17.2557V67.95C17.2557 65.4667 16.0557 64.225 13.6557 64.225C13.1223 64.225 12.5807 64.2833 12.0307 64.4C11.4807 64.5 11.039 64.6333 10.7057 64.8V75H8.10566V63.15ZM24.6754 64.6H23.5254C22.7254 64.6 22.3254 64.2417 22.3254 63.525C22.3254 63.3417 22.3504 63.15 22.4004 62.95C22.4504 62.75 22.5171 62.5833 22.6004 62.45H24.6754V59.7C24.6754 59.3167 24.8004 59.0333 25.0504 58.85C25.3004 58.65 25.6337 58.55 26.0504 58.55C26.5004 58.55 26.9087 58.6333 27.2754 58.8V62.45H30.4504C31.2504 62.45 31.6504 62.8083 31.6504 63.525C31.6504 63.6917 31.6254 63.8833 31.5754 64.1C31.5254 64.3 31.4587 64.4667 31.3754 64.6H27.2754V71.05C27.2754 71.8 27.4587 72.35 27.8254 72.7C28.2087 73.05 28.7087 73.225 29.3254 73.225C29.7254 73.225 30.1004 73.1583 30.4504 73.025C30.8171 72.8917 31.1337 72.725 31.4004 72.525L32.4004 74.125C32.0171 74.475 31.5004 74.7667 30.8504 75C30.2004 75.2333 29.5087 75.35 28.7754 75.35C27.5587 75.35 26.5671 75.0083 25.8004 74.325C25.0504 73.625 24.6754 72.6417 24.6754 71.375V64.6ZM40.302 75.4C39.002 75.4 37.852 75.1417 36.852 74.625C35.852 74.1083 35.0686 73.3667 34.502 72.4C33.9353 71.4167 33.652 70.2583 33.652 68.925C33.652 67.575 33.9186 66.3833 34.452 65.35C35.002 64.3167 35.7686 63.5083 36.752 62.925C37.7353 62.3417 38.8936 62.05 40.227 62.05C41.327 62.05 42.2853 62.25 43.102 62.65C43.9353 63.05 44.5853 63.6083 45.052 64.325C45.5186 65.0417 45.752 65.8833 45.752 66.85C45.752 68.9167 44.577 69.95 42.227 69.95H36.377C36.527 71 36.9686 71.8083 37.702 72.375C38.4353 72.9417 39.4103 73.225 40.627 73.225C41.2603 73.225 41.9186 73.15 42.602 73C43.302 72.85 43.8353 72.6667 44.202 72.45L45.002 74.325C44.7353 74.5083 44.3436 74.6833 43.827 74.85C43.327 75.0167 42.7603 75.15 42.127 75.25C41.5103 75.35 40.902 75.4 40.302 75.4ZM43.277 66.6C43.277 65.7167 42.9686 65.0583 42.352 64.625C41.752 64.175 41.0353 63.95 40.202 63.95C39.4186 63.95 38.7353 64.1417 38.152 64.525C37.5686 64.8917 37.1103 65.3917 36.777 66.025C36.4603 66.6417 36.302 67.3417 36.302 68.125H41.577C42.2103 68.125 42.652 67.9917 42.902 67.725C43.152 67.4583 43.277 67.0833 43.277 66.6ZM49.0969 63.575C49.6302 63.1583 50.3385 62.8 51.2219 62.5C52.1052 62.2 53.0969 62.05 54.1969 62.05C55.1969 62.05 56.0052 62.1833 56.6219 62.45C57.2385 62.7167 57.5469 63.075 57.5469 63.525C57.5469 63.725 57.4885 63.95 57.3719 64.2C57.2552 64.45 57.1302 64.6417 56.9969 64.775C56.7802 64.625 56.4135 64.4917 55.8969 64.375C55.3969 64.2583 54.8969 64.2 54.3969 64.2C53.8969 64.2 53.3969 64.2667 52.8969 64.4C52.4135 64.5167 52.0052 64.6833 51.6719 64.9V75H49.0969V63.575ZM59.6926 63.15C60.0759 62.9667 60.5926 62.7917 61.2426 62.625C61.9092 62.4583 62.6092 62.325 63.3426 62.225C64.0926 62.1083 64.7759 62.05 65.3926 62.05C66.5926 62.05 67.6426 62.2667 68.5426 62.7C69.4592 63.1167 70.1676 63.7083 70.6676 64.475C71.1842 65.2417 71.4426 66.1583 71.4426 67.225V75H68.8426V67.95C68.8426 65.4667 67.6426 64.225 65.2426 64.225C64.7092 64.225 64.1676 64.2833 63.6176 64.4C63.0676 64.5 62.6259 64.6333 62.2926 64.8V75H59.6926V63.15ZM81.5373 75.4C80.2373 75.4 79.0873 75.1417 78.0873 74.625C77.0873 74.1083 76.304 73.3667 75.7373 72.4C75.1706 71.4167 74.8873 70.2583 74.8873 68.925C74.8873 67.575 75.154 66.3833 75.6873 65.35C76.2373 64.3167 77.004 63.5083 77.9873 62.925C78.9706 62.3417 80.129 62.05 81.4623 62.05C82.5623 62.05 83.5206 62.25 84.3373 62.65C85.1706 63.05 85.8206 63.6083 86.2873 64.325C86.754 65.0417 86.9873 65.8833 86.9873 66.85C86.9873 68.9167 85.8123 69.95 83.4623 69.95H77.6123C77.7623 71 78.204 71.8083 78.9373 72.375C79.6706 72.9417 80.6456 73.225 81.8623 73.225C82.4956 73.225 83.154 73.15 83.8373 73C84.5373 72.85 85.0706 72.6667 85.4373 72.45L86.2373 74.325C85.9706 74.5083 85.579 74.6833 85.0623 74.85C84.5623 75.0167 83.9956 75.15 83.3623 75.25C82.7456 75.35 82.1373 75.4 81.5373 75.4ZM84.5123 66.6C84.5123 65.7167 84.204 65.0583 83.5873 64.625C82.9873 64.175 82.2706 63.95 81.4373 63.95C80.654 63.95 79.9706 64.1417 79.3873 64.525C78.804 64.8917 78.3456 65.3917 78.0123 66.025C77.6956 66.6417 77.5373 67.3417 77.5373 68.125H82.8123C83.4456 68.125 83.8873 67.9917 84.1373 67.725C84.3873 67.4583 84.5123 67.0833 84.5123 66.6ZM91.0572 64.6H89.9072C89.1072 64.6 88.7072 64.2417 88.7072 63.525C88.7072 63.3417 88.7322 63.15 88.7822 62.95C88.8322 62.75 88.8989 62.5833 88.9822 62.45H91.0572V59.7C91.0572 59.3167 91.1822 59.0333 91.4322 58.85C91.6822 58.65 92.0156 58.55 92.4322 58.55C92.8822 58.55 93.2906 58.6333 93.6572 58.8V62.45H96.8322C97.6322 62.45 98.0322 62.8083 98.0322 63.525C98.0322 63.6917 98.0072 63.8833 97.9572 64.1C97.9072 64.3 97.8406 64.4667 97.7572 64.6H93.6572V71.05C93.6572 71.8 93.8406 72.35 94.2072 72.7C94.5906 73.05 95.0906 73.225 95.7072 73.225C96.1072 73.225 96.4822 73.1583 96.8322 73.025C97.1989 72.8917 97.5156 72.725 97.7822 72.525L98.7822 74.125C98.3989 74.475 97.8822 74.7667 97.2322 75C96.5822 75.2333 95.8906 75.35 95.1572 75.35C93.9406 75.35 92.9489 75.0083 92.1822 74.325C91.4322 73.625 91.0572 72.6417 91.0572 71.375V64.6ZM103.459 75H100.859V63.6C100.859 63.2167 100.984 62.9333 101.234 62.75C101.484 62.55 101.817 62.45 102.234 62.45C102.684 62.45 103.092 62.5333 103.459 62.7V75ZM101.034 59.275C100.717 58.9583 100.559 58.5833 100.559 58.15C100.559 57.7167 100.717 57.35 101.034 57.05C101.35 56.7333 101.725 56.575 102.159 56.575C102.592 56.575 102.967 56.7333 103.284 57.05C103.6 57.35 103.759 57.7167 103.759 58.15C103.759 58.5833 103.6 58.9583 103.284 59.275C102.967 59.575 102.592 59.725 102.159 59.725C101.725 59.725 101.35 59.575 101.034 59.275ZM108.464 64.6H107.314C106.514 64.6 106.114 64.2417 106.114 63.525C106.114 63.3417 106.139 63.15 106.189 62.95C106.239 62.75 106.306 62.5833 106.389 62.45H108.464V59.7C108.464 59.3167 108.589 59.0333 108.839 58.85C109.089 58.65 109.423 58.55 109.839 58.55C110.289 58.55 110.698 58.6333 111.064 58.8V62.45H114.239C115.039 62.45 115.439 62.8083 115.439 63.525C115.439 63.6917 115.414 63.8833 115.364 64.1C115.314 64.3 115.248 64.4667 115.164 64.6H111.064V71.05C111.064 71.8 111.248 72.35 111.614 72.7C111.998 73.05 112.498 73.225 113.114 73.225C113.514 73.225 113.889 73.1583 114.239 73.025C114.606 72.8917 114.923 72.725 115.189 72.525L116.189 74.125C115.806 74.475 115.289 74.7667 114.639 75C113.989 75.2333 113.298 75.35 112.564 75.35C111.348 75.35 110.356 75.0083 109.589 74.325C108.839 73.625 108.464 72.6417 108.464 71.375V64.6ZM124.371 59.325C124.371 58.325 124.896 57.825 125.946 57.825H133.746C134.596 57.825 135.021 58.2167 135.021 59C135.021 59.2167 134.988 59.4417 134.921 59.675C134.855 59.8917 134.78 60.0667 134.696 60.2H127.071V65.3H132.996C133.846 65.3 134.271 65.6917 134.271 66.475C134.271 66.6917 134.238 66.9167 134.171 67.15C134.105 67.3667 134.03 67.5417 133.946 67.675H127.071V75H124.371V59.325ZM140.983 75H138.383V63.6C138.383 63.2167 138.508 62.9333 138.758 62.75C139.008 62.55 139.342 62.45 139.758 62.45C140.208 62.45 140.617 62.5333 140.983 62.7V75ZM138.558 59.275C138.242 58.9583 138.083 58.5833 138.083 58.15C138.083 57.7167 138.242 57.35 138.558 57.05C138.875 56.7333 139.25 56.575 139.683 56.575C140.117 56.575 140.492 56.7333 140.808 57.05C141.125 57.35 141.283 57.7167 141.283 58.15C141.283 58.5833 141.125 58.9583 140.808 59.275C140.492 59.575 140.117 59.725 139.683 59.725C139.25 59.725 138.875 59.575 138.558 59.275ZM145.264 57.725C145.264 57.3417 145.389 57.0583 145.639 56.875C145.889 56.675 146.222 56.575 146.639 56.575C147.089 56.575 147.497 56.6583 147.864 56.825V64.075C148.231 63.475 148.772 63 149.489 62.65C150.206 62.2833 151.039 62.1 151.989 62.1C153.122 62.1 154.122 62.3583 154.989 62.875C155.872 63.375 156.564 64.1 157.064 65.05C157.581 65.9833 157.839 67.1167 157.839 68.45C157.839 70.5667 157.164 72.25 155.814 73.5C154.464 74.7333 152.522 75.35 149.989 75.35C149.556 75.35 149.022 75.3333 148.389 75.3C147.756 75.2667 147.147 75.2167 146.564 75.15C145.981 75.1 145.547 75.05 145.264 75V57.725ZM154.164 65.425C153.514 64.6417 152.606 64.25 151.439 64.25C150.322 64.25 149.447 64.6167 148.814 65.35C148.181 66.0833 147.864 67.0917 147.864 68.375V73.05C148.064 73.1167 148.414 73.1833 148.914 73.25C149.414 73.3 149.881 73.325 150.314 73.325C151.931 73.325 153.139 72.925 153.939 72.125C154.739 71.325 155.139 70.1667 155.139 68.65C155.139 67.2667 154.814 66.1917 154.164 65.425ZM167.279 75.4C165.979 75.4 164.829 75.1417 163.829 74.625C162.829 74.1083 162.046 73.3667 161.479 72.4C160.913 71.4167 160.629 70.2583 160.629 68.925C160.629 67.575 160.896 66.3833 161.429 65.35C161.979 64.3167 162.746 63.5083 163.729 62.925C164.713 62.3417 165.871 62.05 167.204 62.05C168.304 62.05 169.263 62.25 170.079 62.65C170.913 63.05 171.563 63.6083 172.029 64.325C172.496 65.0417 172.729 65.8833 172.729 66.85C172.729 68.9167 171.554 69.95 169.204 69.95H163.354C163.504 71 163.946 71.8083 164.679 72.375C165.413 72.9417 166.388 73.225 167.604 73.225C168.238 73.225 168.896 73.15 169.579 73C170.279 72.85 170.813 72.6667 171.179 72.45L171.979 74.325C171.713 74.5083 171.321 74.6833 170.804 74.85C170.304 75.0167 169.738 75.15 169.104 75.25C168.488 75.35 167.879 75.4 167.279 75.4ZM170.254 66.6C170.254 65.7167 169.946 65.0583 169.329 64.625C168.729 64.175 168.013 63.95 167.179 63.95C166.396 63.95 165.713 64.1417 165.129 64.525C164.546 64.8917 164.088 65.3917 163.754 66.025C163.438 66.6417 163.279 67.3417 163.279 68.125H168.554C169.188 68.125 169.629 67.9917 169.879 67.725C170.129 67.4583 170.254 67.0833 170.254 66.6ZM163.654 60.275C163.354 59.975 163.204 59.625 163.204 59.225C163.204 58.825 163.354 58.4833 163.654 58.2C163.971 57.9 164.338 57.75 164.754 57.75C165.188 57.75 165.554 57.9 165.854 58.2C166.154 58.4833 166.304 58.825 166.304 59.225C166.304 59.625 166.154 59.975 165.854 60.275C165.554 60.5583 165.188 60.7 164.754 60.7C164.338 60.7 163.971 60.5583 163.654 60.275ZM168.554 60.275C168.254 59.975 168.104 59.625 168.104 59.225C168.104 58.825 168.254 58.4833 168.554 58.2C168.871 57.9 169.238 57.75 169.654 57.75C170.088 57.75 170.454 57.9 170.754 58.2C171.054 58.4833 171.204 58.825 171.204 59.225C171.204 59.625 171.054 59.975 170.754 60.275C170.454 60.5583 170.088 60.7 169.654 60.7C169.238 60.7 168.871 60.5583 168.554 60.275ZM176.074 63.575C176.608 63.1583 177.316 62.8 178.199 62.5C179.083 62.2 180.074 62.05 181.174 62.05C182.174 62.05 182.983 62.1833 183.599 62.45C184.216 62.7167 184.524 63.075 184.524 63.525C184.524 63.725 184.466 63.95 184.349 64.2C184.233 64.45 184.108 64.6417 183.974 64.775C183.758 64.625 183.391 64.4917 182.874 64.375C182.374 64.2583 181.874 64.2 181.374 64.2C180.874 64.2 180.374 64.2667 179.874 64.4C179.391 64.5167 178.983 64.6833 178.649 64.9V75H176.074V63.575ZM184.402 74.85C184.035 74.4833 183.852 74.0333 183.852 73.5C183.852 72.9667 184.035 72.5167 184.402 72.15C184.785 71.7833 185.235 71.6 185.752 71.6C186.269 71.6 186.71 71.7833 187.077 72.15C187.46 72.5167 187.652 72.9667 187.652 73.5C187.652 74.0333 187.46 74.4833 187.077 74.85C186.71 75.2167 186.269 75.4 185.752 75.4C185.235 75.4 184.785 75.2167 184.402 74.85Z" fill="white"/>
</svg>
