<svg width="64" height="79" viewBox="0 0 64 79" fill="none" xmlns="http://www.w3.org/2000/svg">
<g clip-path="url(#clip0_259_227)">
<path d="M45.7501 13.9C46.5401 13.9 47.1901 14.55 47.1901 15.34V31.08C47.1901 31.87 46.5401 32.52 45.7501 32.52H17.5201C16.7301 32.52 16.0801 31.87 16.0801 31.08V15.34C16.0801 14.55 16.7301 13.9 17.5201 13.9H45.7501ZM45.7501 9.90002H17.5201C14.5201 9.90002 12.0801 12.34 12.0801 15.34V31.08C12.0801 34.08 14.5201 36.52 17.5201 36.52H45.7501C48.7501 36.52 51.1901 34.08 51.1901 31.08V15.34C51.1901 12.34 48.7501 9.90002 45.7501 9.90002Z" fill="#F6B119"/>
<path d="M37.0599 22.44C37.7799 22.85 37.7799 23.89 37.0599 24.31L33.0499 26.63L29.0399 28.95C28.3199 29.36 27.4199 28.85 27.4199 28.02V18.75C27.4199 17.92 28.3199 17.4 29.0399 17.82L33.0499 20.14L37.0599 22.46V22.44Z" fill="#F6B119"/>
<path d="M49.73 48.29H13.54C12.44 48.29 11.54 47.39 11.54 46.29C11.54 45.19 12.44 44.29 13.54 44.29H49.73C50.83 44.29 51.73 45.19 51.73 46.29C51.73 47.39 50.83 48.29 49.73 48.29Z" fill="#F6B119"/>
<path d="M49.73 58.2H13.54C12.44 58.2 11.54 57.3 11.54 56.2C11.54 55.1 12.44 54.2 13.54 54.2H49.73C50.83 54.2 51.73 55.1 51.73 56.2C51.73 57.3 50.83 58.2 49.73 58.2Z" fill="#F6B119"/>
<path d="M55.42 4C57.54 4 59.27 5.73 59.27 7.85V70.47C59.27 72.59 57.54 74.32 55.42 74.32H7.85C5.73 74.32 4 72.59 4 70.47V7.85C4 5.73 5.73 4 7.85 4H55.41M55.41 0H7.85C3.52 0 0 3.52 0 7.85V70.47C0 74.81 3.52 78.32 7.85 78.32H55.41C59.75 78.32 63.26 74.8 63.26 70.47V7.85C63.26 3.51 59.74 0 55.41 0Z" fill="#F6B119"/>
</g>
<defs>
<clipPath id="clip0_259_227">
<rect width="63.27" height="78.32" fill="white"/>
</clipPath>
</defs>
</svg>
