<svg width="23" height="23" viewBox="0 0 23 23" fill="none" xmlns="http://www.w3.org/2000/svg">
<g clip-path="url(#clip0_157_297)">
<mask id="mask0_157_297" style="mask-type:luminance" maskUnits="userSpaceOnUse" x="0" y="0" width="23" height="23">
<path d="M22.7138 0.194336H0.888672V22.1558H22.7138V0.194336Z" fill="white"/>
</mask>
<g mask="url(#mask0_157_297)">
<mask id="mask1_157_297" style="mask-type:luminance" maskUnits="userSpaceOnUse" x="0" y="0" width="23" height="23">
<path d="M22.8447 0.155762H0.844727V22.1558H22.8447V0.155762Z" fill="white"/>
</mask>
<g mask="url(#mask1_157_297)">
<path d="M14.1106 1.80584C12.2412 1.80584 10.4867 2.53734 9.16397 3.86834C6.43652 6.61284 6.43652 11.0788 9.16397 13.8233C10.4867 15.1543 12.2412 15.8858 14.1106 15.8858C15.9799 15.8858 17.7344 15.1543 19.0571 13.8233C20.3799 12.4923 21.1068 10.7268 21.1068 8.84584C21.1068 6.96484 20.3799 5.19934 19.0571 3.86834C17.7344 2.53734 15.9799 1.80584 14.1106 1.80584ZM14.1106 17.4973C11.8149 17.4973 9.6559 16.5953 8.02708 14.9618C4.67652 11.5903 4.67652 6.09584 8.02708 2.72434C9.6559 1.09084 11.8149 0.194336 14.1106 0.194336C16.4062 0.194336 18.5652 1.09634 20.1886 2.72984C21.8119 4.36334 22.7083 6.53584 22.7083 8.85134C22.7083 11.1668 21.8119 13.3338 20.1886 14.9673C18.5652 16.6008 16.4062 17.5028 14.1106 17.5028" fill="white"/>
<path d="M18.8656 9.65431C18.4229 9.65431 18.0621 9.29131 18.0621 8.84581C18.0621 6.65681 16.2912 4.87481 14.1158 4.87481C11.9404 4.87481 10.1695 6.65681 10.1695 8.84581C10.1695 9.29131 9.80871 9.65431 9.36598 9.65431C8.92325 9.65431 8.5625 9.29131 8.5625 8.84581C8.5625 5.76581 11.0549 3.25781 14.1158 3.25781C17.1767 3.25781 19.6691 5.76581 19.6691 8.84581C19.6691 9.29131 19.3083 9.65431 18.8656 9.65431Z" fill="white"/>
<path d="M3.65985 22.1559C2.96022 22.1559 2.26606 21.8864 1.73588 21.3529L1.68122 21.2979C1.16743 20.7809 0.888672 20.0934 0.888672 19.3619C0.888672 18.6304 1.1729 17.9429 1.68122 17.4259L5.25588 13.8289C5.56743 13.5154 6.07575 13.5154 6.39277 13.8289C6.70432 14.1424 6.70432 14.6539 6.39277 14.9729L2.81811 18.5699C2.61041 18.7789 2.49563 19.0649 2.49563 19.3619C2.49563 19.6589 2.61041 19.9449 2.81811 20.1539L2.87277 20.2089C3.31004 20.6489 4.01513 20.6489 4.4524 20.2089L8.02706 16.6119C8.33861 16.2984 8.84693 16.2984 9.16395 16.6119C9.4755 16.9254 9.4755 17.4369 9.16395 17.7559L5.58929 21.3529C5.05911 21.8864 4.35948 22.1504 3.66532 22.1559" fill="white"/>
</g>
</g>
</g>
<defs>
<clipPath id="clip0_157_297">
<rect width="22" height="22" fill="white" transform="translate(0.844727 0.155762)"/>
</clipPath>
</defs>
</svg>
