<svg width="25" height="23" viewBox="0 0 25 23" fill="none" xmlns="http://www.w3.org/2000/svg">
<g clip-path="url(#clip0_157_335)">
<mask id="mask0_157_335" style="mask-type:luminance" maskUnits="userSpaceOnUse" x="0" y="0" width="25" height="23">
<path d="M24.9397 0.120117H0.0791016V22.8934H24.9397V0.120117Z" fill="white"/>
</mask>
<g mask="url(#mask0_157_335)">
<mask id="mask1_157_335" style="mask-type:luminance" maskUnits="userSpaceOnUse" x="0" y="0" width="25" height="23">
<path d="M25 0H0V23H25V0Z" fill="white"/>
</mask>
<g mask="url(#mask1_157_335)">
<path d="M21.6607 16.5H7.62434C7.2607 16.5 6.93949 16.24 6.82434 15.86L2.98798 2.88662L0.624341 1.90662C0.187977 1.72662 -0.030205 1.19329 0.133431 0.71329C0.297068 0.239956 0.787977 -4.36604e-05 1.21828 0.179956L3.95767 1.31996C4.19404 1.41996 4.38192 1.63329 4.4607 1.89996L8.23646 14.6533H21.0001L23.0365 5.35996H7.07283C6.61222 5.35996 6.2304 4.94662 6.2304 4.43329C6.2304 3.91996 6.60616 3.50662 7.07283 3.50662H24.0971C24.3516 3.50662 24.6001 3.63996 24.7577 3.85996C24.9152 4.07996 24.9759 4.37329 24.9153 4.64662L22.4789 15.7866C22.388 16.2 22.0486 16.4933 21.6607 16.4933" fill="#662E8F"/>
<path d="M20.5763 10.94H8.50356C8.04295 10.94 7.66113 10.5267 7.66113 10.0133C7.66113 9.5 8.03689 9.08667 8.50356 9.08667H20.5763C21.043 9.08667 21.4187 9.5 21.4187 10.0133C21.4187 10.5267 21.043 10.94 20.5763 10.94Z" fill="#662E8F"/>
<path d="M8.75156 19.4533C8.35156 19.4533 8.03035 19.8066 8.03035 20.2466C8.03035 20.6866 8.35762 21.0399 8.75156 21.0399C9.1455 21.0399 9.47277 20.6799 9.47277 20.2466C9.47277 19.8133 9.15156 19.4533 8.75156 19.4533ZM8.75156 22.8933C7.42429 22.8933 6.35156 21.7066 6.35156 20.2533C6.35156 18.7999 7.43035 17.6133 8.75156 17.6133C10.0728 17.6133 11.1516 18.7999 11.1516 20.2533C11.1516 21.7066 10.0728 22.8933 8.75156 22.8933Z" fill="#662E8F"/>
<path d="M19.8121 19.4533C19.4121 19.4533 19.0909 19.8066 19.0909 20.2466C19.0909 20.6866 19.4121 21.0399 19.8121 21.0399C20.2121 21.0399 20.5333 20.6799 20.5333 20.2466C20.5333 19.8133 20.206 19.4533 19.8121 19.4533ZM19.8121 22.8933C18.4848 22.8933 17.4121 21.7066 17.4121 20.2533C17.4121 18.7999 18.4909 17.6133 19.8121 17.6133C21.1333 17.6133 22.2121 18.7999 22.2121 20.2533C22.2121 21.7066 21.1333 22.8933 19.8121 22.8933Z" fill="#662E8F"/>
</g>
</g>
</g>
<defs>
<clipPath id="clip0_157_335">
<rect width="25" height="23" fill="white"/>
</clipPath>
</defs>
</svg>
