<svg width="20" height="20" viewBox="0 0 20 20" fill="none" xmlns="http://www.w3.org/2000/svg">
<g clip-path="url(#clip0_157_349)">
<mask id="mask0_157_349" style="mask-type:luminance" maskUnits="userSpaceOnUse" x="0" y="0" width="20" height="20">
<path d="M19.9998 0.0600586H0.105469V19.9451H19.9998V0.0600586Z" fill="white"/>
</mask>
<g mask="url(#mask0_157_349)">
<mask id="mask1_157_349" style="mask-type:luminance" maskUnits="userSpaceOnUse" x="0" y="0" width="20" height="20">
<path d="M20 0H0V20H20V0Z" fill="white"/>
</mask>
<g mask="url(#mask1_157_349)">
<path d="M18.6011 17.36L13.6702 15.21V13.205C13.6702 12.82 13.3583 12.51 12.9709 12.51C12.5835 12.51 12.2715 12.82 12.2715 13.205V15.28L7.97465 17.99V15.5C7.97465 15.115 7.6627 14.805 7.27528 14.805C6.88786 14.805 6.57591 15.115 6.57591 15.5V18.2L1.48408 16.035V2.63496L6.57591 4.79996V11.345C6.57591 11.725 6.88786 12.04 7.27528 12.04C7.6627 12.04 7.97465 11.73 7.97465 11.345V4.72496L12.2715 2.01496V9.20996C12.2715 9.59496 12.5835 9.90496 12.9709 9.90496C13.3583 9.90496 13.6702 9.59496 13.6702 9.20996V1.81496L18.6011 3.96496V17.36ZM19.5772 2.87496L13.2577 0.119958C13.2275 0.104958 13.1923 0.0999577 13.157 0.0899577C13.1419 0.0899577 13.1269 0.0799577 13.1118 0.0749577C13.0363 0.0599577 12.9558 0.0599577 12.8803 0.0699577C12.8602 0.0699577 12.8451 0.0749577 12.825 0.0799577C12.7495 0.0949577 12.6791 0.119958 12.6086 0.159958C12.6086 0.159958 12.5986 0.159958 12.5935 0.159958L7.21993 3.56496L1.07654 0.944958C0.860186 0.854958 0.613645 0.874958 0.417418 1.00496C0.221192 1.13496 0.105469 1.34996 0.105469 1.58496V16.495C0.105469 16.77 0.271506 17.02 0.52811 17.13L7.01364 19.89C7.01364 19.89 7.05893 19.905 7.08408 19.91C7.09918 19.91 7.11427 19.92 7.1344 19.925C7.18471 19.935 7.24006 19.945 7.29037 19.945C7.35578 19.945 7.42119 19.935 7.4866 19.915C7.51176 19.91 7.53188 19.895 7.55201 19.885C7.59226 19.87 7.62748 19.855 7.6627 19.835L13.0363 16.44L19.0187 19.05C19.1092 19.09 19.2048 19.11 19.3004 19.11C19.4313 19.11 19.5671 19.07 19.6828 18.995C19.8791 18.865 19.9998 18.65 19.9998 18.415V3.50996C19.9998 3.23496 19.8338 2.98496 19.5822 2.87496" fill="#662E8F"/>
<path d="M4.78478 13.63L4.00994 13.94C3.65271 14.085 3.48164 14.485 3.62252 14.84C3.73321 15.11 3.99484 15.275 4.27157 15.275C4.35711 15.275 4.44767 15.26 4.53321 15.225L5.30805 14.915C5.66528 14.77 5.83635 14.37 5.69547 14.015C5.54956 13.66 5.14201 13.49 4.78981 13.63" fill="#662E8F"/>
<path d="M8.70373 12.0651L7.23455 12.6501C6.87732 12.7901 6.70625 13.1951 6.84713 13.5501C6.95782 13.8201 7.21945 13.9851 7.49618 13.9851C7.58172 13.9851 7.67228 13.9701 7.75782 13.9351L9.227 13.3501C9.58423 13.2101 9.7553 12.8051 9.61442 12.4501C9.46851 12.0951 9.06599 11.9251 8.70876 12.0651" fill="#662E8F"/>
<path d="M12.6188 10.505L11.1496 11.09C10.7924 11.23 10.6213 11.635 10.7622 11.99C10.8729 12.26 11.1345 12.425 11.4112 12.425C11.4968 12.425 11.5873 12.41 11.6729 12.375L13.142 11.79C13.4993 11.645 13.6703 11.245 13.5295 10.89C13.3835 10.535 12.976 10.365 12.6238 10.505" fill="#662E8F"/>
<path d="M15.8434 9.21498L15.0685 9.52498C14.7113 9.66998 14.5402 10.07 14.6811 10.425C14.7918 10.695 15.0534 10.86 15.3302 10.86C15.4157 10.86 15.5063 10.845 15.5918 10.81L16.3666 10.5C16.7239 10.355 16.8949 9.95498 16.7541 9.59998C16.6082 9.24498 16.2006 9.07498 15.8484 9.21498" fill="#662E8F"/>
<path d="M15.3508 5.61499C15.3508 5.12499 15.7533 4.72999 16.2464 4.72999C16.7395 4.72999 17.142 5.12499 17.142 5.61499C17.142 6.10499 16.7445 6.50499 16.2464 6.50499C15.7483 6.50499 15.3508 6.10499 15.3508 5.61499ZM17.781 4.97999C17.2175 3.77499 15.7332 3.75999 15.0238 4.47499C13.8062 5.70499 15.4464 7.55999 16.2112 8.64999C17.0011 7.59499 18.3194 6.11999 17.781 4.97499" fill="#662E8F"/>
<path d="M4.0902 10.9601C3.59712 10.9601 3.1946 10.5651 3.1946 10.0701C3.1946 9.57507 3.59712 9.18007 4.0902 9.18007C4.58328 9.18007 4.9858 9.57507 4.9858 10.0701C4.9858 10.5651 4.58328 10.9601 4.0902 10.9601ZM2.87259 8.93507C1.64995 10.1651 3.29523 12.0201 4.06001 13.1101C4.84995 12.0551 6.16819 10.5801 5.62982 9.43507C5.0663 8.23007 3.58202 8.21507 2.87259 8.93007" fill="#662E8F"/>
</g>
</g>
</g>
<defs>
<clipPath id="clip0_157_349">
<rect width="20" height="20" fill="white"/>
</clipPath>
</defs>
</svg>
