<svg width="20" height="23" viewBox="0 0 20 23" fill="none" xmlns="http://www.w3.org/2000/svg">
<g clip-path="url(#clip0_157_321)">
<mask id="mask0_157_321" style="mask-type:luminance" maskUnits="userSpaceOnUse" x="0" y="0" width="20" height="23">
<path d="M19.9897 0.0390625H0.0537109V22.9833H19.9897V0.0390625Z" fill="white"/>
</mask>
<g mask="url(#mask0_157_321)">
<mask id="mask1_157_321" style="mask-type:luminance" maskUnits="userSpaceOnUse" x="0" y="0" width="20" height="23">
<path d="M20 0H0V23H20V0Z" fill="white"/>
</mask>
<g mask="url(#mask1_157_321)">
<path d="M8.28827 11.4471C8.6776 11.6255 9.1256 11.4415 9.29094 11.04C9.4616 10.6386 9.2856 10.1646 8.9016 9.99179C6.66694 8.96585 5.8776 6.52924 6.25094 4.66137C6.6296 2.76561 8.02694 1.63373 9.98427 1.63373C11.2376 1.63373 12.2189 2.06306 12.8909 2.91058C13.7069 3.93652 13.9043 5.36949 13.7336 6.33409C13.3549 8.52537 11.9416 10.2817 9.29627 11.8597C8.9336 12.0771 8.8056 12.5622 9.0136 12.9469C9.15227 13.2034 9.4136 13.3484 9.67494 13.3484C9.80294 13.3484 9.93094 13.3149 10.0536 13.2425C11.9843 12.0883 14.6189 10.1479 15.2323 6.61846C15.4456 5.38064 15.2696 3.40124 14.0589 1.89021C13.3869 1.0427 12.1336 0.0390625 9.97894 0.0390625C6.76827 0.0390625 5.1736 2.25264 4.7576 4.32682C4.25627 6.83034 5.30694 10.0754 8.28827 11.4415" fill="#662E8F"/>
<path d="M19.3497 14.8873C18.491 12.5399 14.8004 11.0624 14.3844 10.9007C14.011 10.7557 13.595 10.9397 13.4297 11.3133C12.6777 13.0195 11.403 14.0342 10.0164 14.0342C8.62971 14.0342 7.40304 13.0418 6.64038 11.3133C6.47504 10.9341 6.05904 10.7501 5.68571 10.9007C5.26971 11.0624 1.57904 12.5399 0.720378 14.8873C0.181711 16.3482 0.208378 17.915 0.229711 19.2978C0.229711 19.5542 0.240378 19.7996 0.240378 20.0393C0.240378 20.4798 0.581711 20.8367 1.00304 20.8367C1.42438 20.8367 1.76571 20.4798 1.76571 20.0393C1.76571 19.794 1.76571 19.5375 1.75504 19.2699C1.73371 18.0321 1.71238 16.6325 2.14438 15.4616C2.57638 14.2851 4.42704 13.2146 5.59504 12.6682C6.63504 14.5416 8.24571 15.6345 10.0164 15.6345C11.8084 15.6345 13.435 14.5361 14.4804 12.6682C15.6484 13.2146 17.499 14.2851 17.931 15.4616C18.2617 16.3593 18.4377 18.361 18.4644 21.3887H0.816378C0.395044 21.3887 0.0537109 21.7455 0.0537109 22.186C0.0537109 22.6265 0.395044 22.9833 0.816378 22.9833H19.227C19.6484 22.9833 19.9897 22.6265 19.9897 22.186C19.9897 19.8052 19.9257 16.4541 19.3497 14.8929" fill="#662E8F"/>
</g>
</g>
</g>
<defs>
<clipPath id="clip0_157_321">
<rect width="20" height="23" fill="white"/>
</clipPath>
</defs>
</svg>
