<svg width="141" height="115" viewBox="0 0 141 115" fill="none" xmlns="http://www.w3.org/2000/svg">
<path d="M0 61.3659L38.271 97.9555C61.6289 120.292 99.4942 120.292 122.852 97.9555C146.21 75.6195 146.21 39.4107 122.852 17.0747L104.989 0H0V61.3659Z" fill="white"/>
<path d="M59.2611 61.4859C57.0411 59.8074 54.0098 59.7791 51.7825 61.2109V47.987C51.7825 44.6369 48.9429 41.9146 45.4323 41.9146C41.9216 41.9146 39.082 44.6299 39.082 47.987V78.1304C39.082 81.4804 41.9216 84.2028 45.4323 84.2028C47.431 84.2028 49.2085 83.3212 50.3738 81.9389C50.3885 81.9248 50.4033 81.9107 50.4107 81.8965L60.3011 70.0127C62.4768 67.382 62.0122 63.5665 59.2611 61.4859Z" fill="#F5B01A"/>
<path d="M37.9981 31.9912C35.9994 31.9912 34.2219 32.8728 33.0566 34.2551C33.0418 34.2692 33.0271 34.2834 33.0197 34.2975L23.1293 46.1813C20.9535 48.812 21.4182 52.6275 24.1692 54.7081C26.3892 56.3866 29.4205 56.4149 31.6479 54.9831V68.207C31.6479 71.5571 34.4874 74.2794 37.9981 74.2794C41.5088 74.2794 44.3483 71.5641 44.3483 68.207V38.0636C44.3483 34.7136 41.5088 31.9912 37.9981 31.9912Z" fill="#662E8F"/>
<path d="M72.6258 57.8747C69.624 57.8747 67.6179 55.9846 67.6179 53.1635C67.6179 50.3424 69.6314 48.4382 72.6258 48.4382C75.6203 48.4382 77.6337 50.3283 77.6337 53.1494C77.6337 55.9705 75.6203 57.8747 72.6258 57.8747ZM72.6258 43.5083C66.4895 43.5083 62.374 47.3732 62.374 53.1776C62.374 58.982 66.4895 62.8117 72.6258 62.8117C78.7622 62.8117 82.8777 58.9468 82.8777 53.1423C82.8777 47.3379 78.7622 43.5083 72.6258 43.5083Z" fill="#662E8F"/>
<path d="M100.482 45.3985C99.6339 44.7637 98.6383 44.2842 97.5024 43.9527C96.3593 43.6212 95.1497 43.459 93.8738 43.459C92.5978 43.459 91.3587 43.6212 90.2303 43.9527C89.1019 44.2842 88.1062 44.7637 87.2506 45.3985C86.3951 46.0332 85.7166 46.8231 85.2224 47.7753C84.7283 48.7274 84.4849 49.8135 84.4849 51.0336V59.2642C84.4849 60.8299 85.8124 62.0994 87.4498 62.0994C89.0871 62.0994 90.4147 60.8299 90.4147 59.2642V52.3384C90.4147 49.8981 91.5652 48.678 93.8738 48.678C94.9801 48.678 95.8282 48.9813 96.4183 49.5737C97.0083 50.1732 97.3033 51.0901 97.3033 52.3384V59.2642C97.3033 60.8299 98.6309 62.0994 100.268 62.0994C101.906 62.0994 103.233 60.8299 103.233 59.2642V51.0336C103.233 49.8135 102.99 48.7274 102.496 47.7753C102.001 46.8231 101.338 46.0332 100.489 45.3985" fill="#662E8F"/>
<path d="M110.867 51.6261C110.889 51.1535 110.992 50.6951 111.162 50.2367C111.332 49.7782 111.583 49.3762 111.914 49.0236C112.246 48.671 112.659 48.3818 113.146 48.1632C113.64 47.9375 114.216 47.8317 114.879 47.8317C115.809 47.8317 116.509 48.0151 116.981 48.3747C117.446 48.7415 117.682 49.1647 117.682 49.6583C117.682 49.8911 117.63 50.1309 117.534 50.3636C117.439 50.5964 117.166 50.8079 116.723 50.9984C116.281 51.1888 115.602 51.3369 114.695 51.4568C113.788 51.5767 112.512 51.6331 110.867 51.6331M117.844 54.9056C119.253 54.6446 120.374 54.2779 121.193 53.7983C122.019 53.3187 122.587 52.7333 122.904 52.0351C123.221 51.3439 123.383 50.5611 123.383 49.6936C123.383 48.8966 123.191 48.1208 122.815 47.3662C122.432 46.6186 121.886 45.9486 121.156 45.3562C120.433 44.7708 119.541 44.3053 118.486 43.9668C117.431 43.6283 116.244 43.459 114.916 43.459C113.493 43.459 112.165 43.6847 110.941 44.1431C109.709 44.6015 108.647 45.2433 107.74 46.0614C106.833 46.8796 106.117 47.8811 105.601 49.0518C105.085 50.2296 104.827 51.5203 104.827 52.9238C104.827 54.426 105.085 55.766 105.601 56.9368C106.117 58.1146 106.825 59.102 107.718 59.913C108.61 60.7241 109.665 61.3377 110.867 61.7608C112.069 62.184 113.36 62.3956 114.732 62.3956C115.838 62.3956 116.849 62.318 117.77 62.1699C118.692 62.0147 119.496 61.8384 120.182 61.6268C120.19 61.6268 120.197 61.6268 120.204 61.6198C121.679 61.1543 122.365 59.5392 121.672 58.2063L121.62 58.1075C121.193 57.2965 120.219 56.8945 119.312 57.1484H119.297C118.877 57.2683 118.39 57.3811 117.822 57.4869C117.254 57.5927 116.657 57.642 116.015 57.642C115.182 57.642 114.466 57.5715 113.876 57.4305C113.286 57.2894 112.799 57.099 112.423 56.8662C112.04 56.6335 111.745 56.3796 111.538 56.1116C111.332 55.8436 111.199 55.5685 111.155 55.2864H112.445C114.629 55.2864 116.428 55.1595 117.837 54.8985" fill="#662E8F"/>
</svg>
