<svg width="71" height="71" viewBox="0 0 71 71" fill="none" xmlns="http://www.w3.org/2000/svg">
<path d="M35.42 70.83C15.89 70.83 0 54.95 0 35.42C0 15.89 15.89 0 35.42 0C54.95 0 70.84 15.89 70.84 35.42C70.84 54.95 54.95 70.84 35.42 70.84V70.83ZM35.42 4C18.1 4 4 18.09 4 35.42C4 52.75 18.09 66.84 35.42 66.84C52.75 66.84 66.84 52.75 66.84 35.42C66.84 18.09 52.74 4 35.42 4Z" fill="#F6B119"/>
<path d="M35.4201 57.19C23.4101 57.19 13.6401 47.42 13.6401 35.41C13.6401 23.4 23.4101 13.63 35.4201 13.63C47.4301 13.63 57.2001 23.4 57.2001 35.41C57.2001 47.42 47.4301 57.19 35.4201 57.19Z" fill="#F6B119"/>
</svg>
