<svg width="98" height="79" viewBox="0 0 98 79" fill="none" xmlns="http://www.w3.org/2000/svg">
<path d="M80.5237 1.54822H7.12069C4.05673 1.54822 1.55127 4.04092 1.55127 7.10647V51.619C1.55127 54.6845 4.05673 57.1772 7.12069 57.1772H47.5339V74.3552C47.5339 76.066 48.9301 77.4517 50.6444 77.4517H64.5136C66.2279 77.4517 67.6241 76.066 67.6241 74.3552V73.9371H92.2986C94.5869 73.9371 96.4485 72.087 96.4485 69.8033V28.2944C96.4485 26.0107 94.5869 24.1528 92.2986 24.1528H86.0931V7.10647C86.0931 4.04092 83.5954 1.54822 80.5237 1.54822ZM7.12069 53.3066C6.18986 53.3066 5.42969 52.5479 5.42969 51.619V7.10647C5.42969 6.16978 6.18986 5.41887 7.12069 5.41887H80.5237C81.4546 5.41887 82.2147 6.16978 82.2147 7.10647V24.1528H63.1018C60.8136 24.1528 58.9519 26.0107 58.9519 28.2944V46.92H50.6444C48.9301 46.92 47.5339 48.3134 47.5339 50.0165V53.3066H7.12069ZM62.8304 46.92V28.2944C62.8304 28.1473 62.9545 28.0235 63.1018 28.0235H92.2986C92.4538 28.0235 92.5701 28.1473 92.5701 28.2944V69.8033C92.5701 69.9504 92.4538 70.0665 92.2986 70.0665H67.6241V50.0165C67.6241 48.3134 66.2279 46.92 64.5136 46.92H62.8304ZM51.4123 73.581V50.7906H63.7457V73.581H51.4123Z" fill="#F6B119"/>
</svg>
