<svg width="65" height="80" viewBox="0 0 65 80" fill="none" xmlns="http://www.w3.org/2000/svg">
<g clip-path="url(#clip0_259_235)">
<path d="M32.2199 79.24C31.8299 79.24 31.2399 79.24 27.0599 77.18C12.5099 70.04 3.38995 61.02 0.669946 51.11C-0.0400543 48.62 -0.0400544 48.23 0.0299456 27.91L0.129946 5.86001L14.5899 3.10001C22.1199 1.67001 28.0699 0.500015 28.7099 0.340015H28.7599C31.5599 -0.299985 33.3099 -0.129985 42.1199 1.63001C44.4199 2.07001 47.2199 2.60001 49.8399 3.10001C52.4899 3.60001 54.9799 4.08001 56.6399 4.40001L64.3099 5.85001L64.41 27.9C64.4799 48.26 64.4799 48.65 63.7599 51.13C61.0799 61.01 51.8399 70.09 37.0499 77.33C33.1999 79.22 32.5599 79.22 32.2199 79.22V79.24ZM4.11995 9.17002L4.02995 27.93C3.96995 47.51 3.97995 48.13 4.52995 50.04C6.93995 58.84 15.3399 66.97 28.8399 73.6C30.4399 74.39 31.6299 74.92 32.2299 75.15C32.7899 74.93 33.8799 74.46 35.3099 73.76C49.0399 67.03 57.5499 58.84 59.9299 50.07C60.4799 48.16 60.4999 47.54 60.4299 27.93L60.3399 9.18002L55.8999 8.34002C54.2299 8.02002 51.7499 7.55001 49.0999 7.04001C46.4699 6.54001 43.6799 6.01001 41.3599 5.56001C32.8199 3.86001 31.6599 3.79001 29.6599 4.24001C28.6399 4.49001 21.6199 5.85002 15.3599 7.03001L4.12995 9.18002L4.11995 9.17002Z" fill="#F6B119"/>
<path d="M23.1297 31.4C19.0897 31.4 15.9297 27.27 15.9297 22C15.9297 16.73 19.0897 12.6 23.1297 12.6C27.1697 12.6 30.3297 16.73 30.3297 22C30.3297 27.27 27.1697 31.4 23.1297 31.4ZM23.1297 16.6C21.6097 16.6 19.9297 18.82 19.9297 22C19.9297 25.18 21.6197 27.4 23.1297 27.4C24.6397 27.4 26.3297 25.18 26.3297 22C26.3297 18.82 24.6397 16.6 23.1297 16.6Z" fill="#F6B119"/>
<path d="M34.2697 49.02H11.9697C10.8697 49.02 9.96973 48.12 9.96973 47.02C9.96973 45.92 10.8697 45.02 11.9697 45.02H32.9297C33.1697 41.95 32.9297 37.05 29.1797 35.36C26.4797 38.42 24.4497 39.94 23.0297 39.87C22.3897 39.84 21.2097 39.78 17.1897 35.36C16.0997 35.81 14.4197 37.3 14.1097 42.16C14.0397 43.26 13.1197 44.12 11.9897 44.03C10.8897 43.96 10.0497 43.01 10.1197 41.91C10.7097 32.64 15.8697 31.37 17.4397 31.21C18.2497 31.12 19.0397 31.43 19.5697 32.03C21.0697 33.72 22.4097 35.03 23.1597 35.63C24.0797 34.9 25.7597 33.21 26.7997 31.98C27.4397 31.23 28.4497 30.92 29.3897 31.19C35.1197 32.81 37.8697 38.66 36.7397 46.86C36.5697 48.09 35.4997 49.02 34.2597 49.02H34.2697Z" fill="#F6B119"/>
<path d="M43.1896 38.94C40.0696 38.94 37.6396 35.75 37.6396 31.67C37.6396 27.59 40.0796 24.4 43.1896 24.4C46.2996 24.4 48.7397 27.59 48.7397 31.67C48.7397 35.75 46.2996 38.94 43.1896 38.94ZM43.1896 27.36C41.9696 27.36 40.5996 29.13 40.5996 31.66C40.5996 34.19 41.9596 35.97 43.1896 35.97C44.4196 35.97 45.7796 34.2 45.7796 31.66C45.7796 29.12 44.4196 27.36 43.1896 27.36Z" fill="#F6B119"/>
<path d="M51.9095 52.72H34.4595C33.6395 52.72 32.9795 52.06 32.9795 51.24C32.9795 50.42 33.6395 49.76 34.4595 49.76H50.9295C51.1295 47.33 50.9495 43.35 47.8995 42.02C45.7795 44.43 44.1395 45.61 43.1195 45.57C42.6195 45.55 41.7195 45.5 38.5695 42.03C37.6995 42.37 36.3095 43.52 36.0595 47.44C36.0095 48.26 35.3095 48.87 34.4795 48.83C33.6595 48.78 33.0395 48.07 33.0895 47.25C33.5495 40.06 37.5295 39.08 38.7395 38.95C39.3495 38.89 39.9395 39.12 40.3395 39.57C41.5495 40.94 42.6295 41.98 43.2095 42.44C43.9295 41.89 45.2795 40.53 46.1195 39.54C46.5895 38.98 47.3595 38.75 48.0595 38.95C52.4995 40.2 54.6295 44.75 53.7495 51.12C53.6295 52.04 52.8295 52.74 51.8895 52.74L51.9095 52.72Z" fill="#F6B119"/>
</g>
<defs>
<clipPath id="clip0_259_235">
<rect width="64.44" height="79.24" fill="white"/>
</clipPath>
</defs>
</svg>
