<svg width="66" height="58" viewBox="0 0 66 58" fill="none" xmlns="http://www.w3.org/2000/svg">
<g clip-path="url(#clip0_259_246)">
<path d="M60.73 57.63H4.77C2.14 57.63 0 55.49 0 52.86V18.85C0 16.22 2.14 14.08 4.77 14.08H60.74C63.37 14.08 65.51 16.22 65.51 18.85V52.86C65.51 55.49 63.37 57.63 60.74 57.63H60.73ZM4.77 18.08C4.35 18.08 4 18.42 4 18.85V52.86C4 53.28 4.34 53.63 4.77 53.63H60.74C61.16 53.63 61.51 53.29 61.51 52.86V18.85C61.51 18.43 61.17 18.08 60.74 18.08H4.77Z" fill="#F6B119"/>
<path d="M27.8599 35.8601V28.4201C27.8599 27.5001 28.8599 26.9301 29.6499 27.3901L36.0899 31.1101L42.5299 34.8301C43.3299 35.2901 43.3299 36.4401 42.5299 36.9001L36.0899 40.6201L29.6499 44.3401C28.8499 44.8001 27.8599 44.2301 27.8599 43.3101V35.8701V35.8601Z" fill="#F6B119"/>
<path d="M58.0301 10.5699H8.12012C7.02012 10.5699 6.12012 9.66995 6.12012 8.56995C6.12012 7.46995 7.02012 6.56995 8.12012 6.56995H58.0301C59.1301 6.56995 60.0301 7.46995 60.0301 8.56995C60.0301 9.66995 59.1301 10.5699 58.0301 10.5699Z" fill="#F6B119"/>
<path d="M53.19 4H12.96C11.86 4 10.96 3.1 10.96 2C10.96 0.9 11.86 0 12.96 0H53.19C54.29 0 55.19 0.9 55.19 2C55.19 3.1 54.29 4 53.19 4Z" fill="#F6B119"/>
</g>
<defs>
<clipPath id="clip0_259_246">
<rect width="65.5" height="57.63" fill="white"/>
</clipPath>
</defs>
</svg>
