<svg width="263" height="30" viewBox="0 0 263 30" fill="none" xmlns="http://www.w3.org/2000/svg">
<path d="M0.3 23V18.71C4.44 14.78 10.02 9.26 11.94 7.1H3.39C1.56 7.1 0.84 6.29 0.84 4.82C0.84 3.74 1.26 2.75 1.47 2.42H15.72C17.61 2.42 18.72 3.26 18.72 4.94C18.72 6.47 17.67 7.64 16.44 9.05C14.28 11.45 11.31 14.6 7.47 18.32H18.6V23H0.3ZM21.6766 27.95L22.9966 24.5C23.2066 24.65 25.1566 25.46 27.7066 25.46C30.2866 25.46 32.1466 24.38 32.1466 21.38V21.05C31.7866 21.41 30.2566 22.7 27.7666 22.7C23.4166 22.7 20.3566 19.97 20.3566 15.23C20.3566 10.55 23.8666 7.28 28.7866 7.28C31.5466 7.28 33.9766 8.33 35.5066 10.34C36.4666 11.63 36.9766 13.22 36.9766 15.86V20.33C36.9766 26.57 33.2566 29.3 28.2166 29.3C24.7366 29.3 22.1566 28.28 21.6766 27.95ZM25.3066 15.23C25.3066 17.51 26.7166 18.62 28.7266 18.62C30.6766 18.62 32.1466 17.27 32.1466 15.23C32.1466 13.19 30.6766 11.75 28.7266 11.75C26.7166 11.75 25.3066 13.31 25.3066 15.23ZM34.3917 28.37L35.5917 24.8C36.1017 25.07 37.0317 25.31 37.8717 25.31C39.0417 25.31 40.0617 24.83 40.0617 23.15V9.83C40.0617 8.27 41.0517 7.7 42.5817 7.7C43.6617 7.7 44.6517 8.06 44.8917 8.15V22.76C44.8917 27.8 41.9217 29.3 38.6517 29.3C36.8217 29.3 34.8117 28.61 34.3917 28.37ZM39.7917 3.59C39.7917 2.06 40.9317 0.889999 42.4617 0.889999C43.9917 0.889999 45.1617 2.06 45.1617 3.59C45.1617 5.12 43.9917 6.26 42.4617 6.26C40.9317 6.26 39.7917 5.12 39.7917 3.59ZM48.4992 23V9.83C48.4992 8.27 49.4892 7.7 51.0192 7.7C52.0992 7.7 53.0892 8.06 53.3292 8.15V23H48.4992ZM48.2292 3.59C48.2292 2.06 49.3692 0.889999 50.8992 0.889999C52.4292 0.889999 53.5992 2.06 53.5992 3.59C53.5992 5.12 52.4292 6.26 50.8992 6.26C49.3692 6.26 48.2292 5.12 48.2292 3.59ZM72.8067 1.34V14.66C72.8067 17.21 72.2667 19.07 71.3067 20.36C69.7767 22.37 67.3467 23.42 64.4667 23.42C59.7567 23.42 56.1867 20.18 56.1867 15.35C56.1867 10.49 59.5167 7.28 63.5967 7.28C65.8467 7.28 67.2867 8.21 68.0067 8.93V3.02C68.0067 1.46 68.9967 0.889999 70.5267 0.889999C71.6067 0.889999 72.5667 1.25 72.8067 1.34ZM64.5867 18.98C66.5967 18.98 68.0367 17.63 68.0367 15.38C68.0367 13.31 66.5967 11.69 64.5867 11.69C62.5767 11.69 61.1367 13.22 61.1367 15.38C61.1367 17.54 62.5767 18.98 64.5867 18.98ZM75.7418 23V3.02C75.7418 1.46 76.7318 0.889999 78.2618 0.889999C79.3418 0.889999 80.3018 1.25 80.5418 1.34V8.6C81.2918 7.91 82.5818 7.25 84.6518 7.25C88.2218 7.25 90.9518 9.23 90.9518 13.67V23H86.1218V14.66C86.1218 12.62 85.2218 11.75 83.4218 11.75C81.6218 11.75 80.5718 12.8 80.5718 15.08V23H75.7418ZM106.08 29H101.28V16.04C101.28 13.49 101.82 11.63 102.78 10.34C104.31 8.33 106.74 7.28 109.62 7.28C114.33 7.28 117.9 10.52 117.9 15.35C117.9 20.21 114.57 23.36 110.49 23.36C108.24 23.36 106.8 22.49 106.08 21.77V29ZM109.5 19.01C111.51 19.01 112.95 17.48 112.95 15.32C112.95 13.16 111.51 11.72 109.5 11.72C107.49 11.72 106.05 13.07 106.05 15.32C106.05 17.39 107.49 19.01 109.5 19.01ZM120.745 23V3.02C120.745 1.46 121.735 0.889999 123.265 0.889999C124.345 0.889999 125.335 1.25 125.575 1.34V23H120.745ZM143.193 13.85V22.91C142.713 23.06 139.683 23.42 136.083 23.42C129.993 23.42 128.283 21.11 128.283 18.38C128.283 14.69 130.533 13.25 135.663 13.25C136.953 13.25 137.763 13.28 138.333 13.37C138.333 11.96 137.283 11.12 134.643 11.12C132.153 11.12 130.923 11.78 130.593 12.02C130.443 11.87 129.513 11 129.513 9.89C129.513 8.15 131.283 7.28 134.853 7.28C139.533 7.28 143.193 8.81 143.193 13.85ZM138.363 19.85V16.64C138.003 16.55 137.403 16.49 135.993 16.49C133.593 16.49 133.083 17.36 133.083 18.32C133.083 19.04 133.383 20 136.053 20C137.103 20 138.093 19.94 138.363 19.85ZM146.044 23V13.73C146.044 9.53 149.494 7.28 153.694 7.28C157.894 7.28 161.314 9.53 161.314 13.73V23H156.484V14.84C156.484 12.71 155.494 11.72 153.694 11.72C151.804 11.72 150.874 12.77 150.874 14.84V23H146.044ZM164.749 23V9.83C164.749 8.27 165.739 7.7 167.269 7.7C168.349 7.7 169.339 8.06 169.579 8.15V23H164.749ZM164.479 3.59C164.479 2.06 165.619 0.889999 167.149 0.889999C168.679 0.889999 169.849 2.06 169.849 3.59C169.849 5.12 168.679 6.26 167.149 6.26C165.619 6.26 164.479 5.12 164.479 3.59ZM172.587 23V13.73C172.587 9.53 176.037 7.28 180.237 7.28C184.437 7.28 187.857 9.53 187.857 13.73V23H183.027V14.84C183.027 12.71 182.037 11.72 180.237 11.72C178.347 11.72 177.417 12.77 177.417 14.84V23H172.587ZM198.525 17.96V5.33C198.525 3.77 199.515 3.2 201.045 3.2C202.125 3.2 203.115 3.56 203.355 3.65V7.7H206.805C208.605 7.7 209.295 8.42 209.295 9.86C209.295 10.91 208.845 11.93 208.695 12.2H203.355V16.91C203.355 18.71 204.555 19.04 205.635 19.04C206.745 19.04 207.765 18.59 208.155 18.35L210.045 21.65C209.355 22.25 207.195 23.42 204.525 23.42C200.775 23.42 198.525 21.29 198.525 17.96ZM217.435 17.36H216.385C216.535 18.29 217.645 19.37 220.345 19.37C222.415 19.37 224.095 18.59 224.245 18.44L225.925 21.8C225.295 22.19 222.925 23.42 219.295 23.42C214.825 23.42 211.225 20.48 211.225 15.35C211.225 10.52 214.795 7.28 219.445 7.28C223.795 7.28 226.345 9.83 226.345 12.59C226.345 15.56 224.545 17.36 217.435 17.36ZM216.145 14.24C221.485 14.24 221.695 13.37 221.695 12.56C221.695 11.72 220.945 11 219.415 11C217.255 11 216.235 12.65 216.145 14.24ZM213.895 3.74C213.895 2.66 214.945 1.61 216.145 1.61C217.345 1.61 218.335 2.66 218.335 3.74C218.335 4.85 217.345 5.9 216.145 5.9C214.945 5.9 213.895 4.85 213.895 3.74ZM220.285 3.74C220.285 2.66 221.275 1.61 222.505 1.61C223.735 1.61 224.695 2.66 224.695 3.74C224.695 4.85 223.735 5.9 222.505 5.9C221.275 5.9 220.285 4.85 220.285 3.74ZM228.221 23V13.73C228.221 9.53 231.671 7.28 235.871 7.28C240.071 7.28 243.491 9.53 243.491 13.73V23H238.661V14.84C238.661 12.71 237.671 11.72 235.871 11.72C233.981 11.72 233.051 12.77 233.051 14.84V23H228.221ZM262.797 1.34V14.66C262.797 17.21 262.257 19.07 261.297 20.36C259.767 22.37 257.337 23.42 254.457 23.42C249.747 23.42 246.177 20.18 246.177 15.35C246.177 10.49 249.507 7.28 253.587 7.28C255.837 7.28 257.277 8.21 257.997 8.93V3.02C257.997 1.46 258.987 0.889999 260.517 0.889999C261.597 0.889999 262.557 1.25 262.797 1.34ZM254.577 18.98C256.587 18.98 258.027 17.63 258.027 15.38C258.027 13.31 256.587 11.69 254.577 11.69C252.567 11.69 251.127 13.22 251.127 15.38C251.127 17.54 252.567 18.98 254.577 18.98Z" fill="white"/>
</svg>
